<svg width="2476" height="2476" xmlns="http://www.w3.org/2000/svg" xmlns:xlink="http://www.w3.org/1999/xlink" xml:space="preserve" overflow="hidden"><g transform="translate(-962 0)"><path d="M46.0448 0C99.3555 19.4666 150.87 43.5687 200 72.027L132.689 189C90.3444 164.471 45.9467 143.7 0 126.92Z" stroke="#A6A6A6" stroke-width="1.23786" stroke-linecap="round" stroke-linejoin="round" stroke-miterlimit="10" fill="none" fill-rule="evenodd" transform="matrix(-1 0 0 1 1913.5 322.5)"/><path d="M67.5824 0C110.101 24.4329 150.393 52.5157 188 83.9304L101.114 187C69.5345 160.622 35.7021 137.04 0 116.521Z" stroke="#A6A6A6" stroke-width="1.23786" stroke-linecap="round" stroke-linejoin="round" stroke-miterlimit="10" fill="none" fill-rule="evenodd" transform="matrix(-1 0 0 1 1848.5 511.5)"/><path d="M81.8053 0C113.353 26.3129 142.528 55.3174 169 86.6778L71.5068 168C49.7977 142.28 25.8715 118.496 0 96.9152Z" stroke="#A6A6A6" stroke-width="1.23786" stroke-linecap="round" stroke-linejoin="round" stroke-miterlimit="10" fill="none" fill-rule="evenodd" transform="matrix(-1 0 0 1 1829.5 698.5)"/><path d="M92.8955 0C114.644 25.8051 134.084 53.452 151 82.6251L45.9789 143C32.5934 119.914 17.2099 98.0365 0 77.6143Z" stroke="#A6A6A6" stroke-width="1.23786" stroke-linecap="round" stroke-linejoin="round" stroke-miterlimit="10" fill="none" fill-rule="evenodd" transform="matrix(-1 0 0 1 1850.5 866.5)"/><path d="M86.1345 0C99.5148 23.0361 110.846 47.1909 120 72.1863L26.5376 106C19.3645 86.4131 10.4856 67.4853 0 49.4326Z" stroke="#A6A6A6" stroke-width="1.23786" stroke-linecap="round" stroke-linejoin="round" stroke-miterlimit="10" fill="none" fill-rule="evenodd" transform="matrix(-1 0 0 1 1890.5 1009.5)"/><path d="M79.8447 0C86.9754 19.5757 92.3798 39.7373 96.0003 60.2536L12.3225 74.9999C9.56176 59.3527 5.4372 43.9737 0 29.0426Z" stroke="#A6A6A6" stroke-width="1.23786" stroke-linecap="round" stroke-linejoin="round" stroke-miterlimit="10" fill="none" fill-rule="evenodd" transform="matrix(-1 0 0 1 1943.5 1115.5)"/><path d="M71.8335 0C74.6068 15.848 76.0003 31.9089 76.0003 48.0001L3.06176 48.0001C3.06176 36.1869 2.03635 24.3948 0 12.7609Z" stroke="#FFFFFF" stroke-width="1.23786" stroke-linecap="round" stroke-linejoin="round" stroke-miterlimit="10" fill="#67029E" fill-rule="evenodd" transform="matrix(-1 0 0 1 2003.5 1190.5)"/><path d="M209 49.7573C148.515 27.798 86.2209 11.1489 22.8314 0L0 129.158C55.8522 138.981 110.738 153.651 164.032 173Z" stroke="#FFFFFF" stroke-width="1.23786" stroke-linecap="round" stroke-linejoin="round" stroke-miterlimit="10" fill="#FF3273" fill-rule="evenodd" transform="matrix(-1 0 0 1 2031.5 149.5)"/><path d="M220 81.3201C164.168 49.1896 105.626 21.9788 45.0409 0L0 123.352C53.3797 142.716 104.96 166.692 154.155 195Z" stroke="#FFFFFF" stroke-width="1.23786" stroke-linecap="round" stroke-linejoin="round" stroke-miterlimit="10" fill="#FF33AC" fill-rule="evenodd" transform="matrix(-1 0 0 1 1867.5 199.5)"/><path d="M224 110.407C174.608 69.0838 121.692 32.1422 65.8533 0L0 113.721C49.198 142.042 95.8236 174.594 139.341 211Z" stroke="#FFFFFF" stroke-width="1.23786" stroke-linecap="round" stroke-linejoin="round" stroke-miterlimit="10" fill="#FB33D1" fill-rule="evenodd" transform="matrix(-1 0 0 1 1713.5 280.5)"/><path d="M221 135.791C179.589 86.6608 133.946 41.2239 84.5923 0L0 100.357C43.4851 136.679 83.7008 176.714 120.189 220Z" stroke="#FFFFFF" stroke-width="1.23786" stroke-linecap="round" stroke-linejoin="round" stroke-miterlimit="10" fill="#EA32E0" fill-rule="evenodd" transform="matrix(-1 0 0 1 1574.5 391.5)"/><path d="M211 158.145C178.858 102.307 141.916 49.3918 100.593 0L0 84.6583C36.4094 128.177 68.9577 174.8 97.2791 224Z" stroke="#FFFFFF" stroke-width="1.23786" stroke-linecap="round" stroke-linejoin="round" stroke-miterlimit="10" fill="#D233EF" fill-rule="evenodd" transform="matrix(-1 0 0 1 1454.5 527.5)"/><path d="M195 174.957C173.021 114.373 145.812 55.8316 113.679 0L0 65.8473C28.3106 115.041 52.2836 166.621 71.6502 220Z" stroke="#FFFFFF" stroke-width="1.23786" stroke-linecap="round" stroke-linejoin="round" stroke-miterlimit="10" fill="#B933F6" fill-rule="evenodd" transform="matrix(-1 0 0 1 1356.5 685.5)"/><path d="M174 186.166C162.786 122.776 146.041 60.4842 123.955 0L0 44.9702C19.459 98.2631 34.2141 153.146 44.0938 209Z" stroke="#FFFFFF" stroke-width="1.23786" stroke-linecap="round" stroke-linejoin="round" stroke-miterlimit="10" fill="#A233FE" fill-rule="evenodd" transform="matrix(-1 0 0 1 1285.5 860.5)"/><path d="M147 191.998C147 127.632 141.347 63.3881 130.114 0L0 22.831C9.89547 78.6822 14.8726 135.286 14.8726 192Z" stroke="#FFFFFF" stroke-width="1.23786" stroke-linecap="round" stroke-linejoin="round" stroke-miterlimit="10" fill="#8C35FE" fill-rule="evenodd" transform="matrix(-1 0 0 1 1241.5 1046.5)"/><path d="M130.114 192C141.347 128.611 147 64.3665 147 0L14.8726 0C14.8726 56.7123 9.89547 113.317 0 169.169Z" stroke="#FFFFFF" stroke-width="1.23786" stroke-linecap="round" stroke-linejoin="round" stroke-miterlimit="10" fill="#763CFF" fill-rule="evenodd" transform="matrix(-1 0 0 1 1241.5 1238.5)"/><path d="M123.955 209C146.041 148.515 162.788 86.2231 174 22.8314L44.0938 0C34.2141 55.8522 19.459 110.738 0 164.032Z" stroke="#FFFFFF" stroke-width="1.23786" stroke-linecap="round" stroke-linejoin="round" stroke-miterlimit="10" fill="#6043FF" fill-rule="evenodd" transform="matrix(-1 0 0 1 1285.5 1407.5)"/><path d="M113.682 220C145.812 164.166 173.021 105.625 195 45.0404L71.6502 0C52.2858 53.3791 28.3106 104.959 0 154.153Z" stroke="#FFFFFF" stroke-width="1.23786" stroke-linecap="round" stroke-linejoin="round" stroke-miterlimit="10" fill="#5451FA" fill-rule="evenodd" transform="matrix(-1 0 0 1 1356.5 1571.5)"/><path d="M100.595 224C141.916 174.607 178.858 121.692 211 65.8532L97.2791 0C68.9577 49.1979 36.4094 95.8234 0 139.343Z" stroke="#FFFFFF" stroke-width="1.23786" stroke-linecap="round" stroke-linejoin="round" stroke-miterlimit="10" fill="#3B5BFE" fill-rule="evenodd" transform="matrix(-1 0 0 1 1454.5 1725.5)"/><path d="M84.5923 221C133.948 179.589 179.589 133.946 221 84.5923L120.187 0C83.7008 43.4851 43.4851 83.7008 0 120.189Z" stroke="#FFFFFF" stroke-width="1.23786" stroke-linecap="round" stroke-linejoin="round" stroke-miterlimit="10" fill="#336DFF" fill-rule="evenodd" transform="matrix(-1 0 0 1 1574.5 1864.5)"/><path d="M65.8533 212C121.692 179.705 174.608 142.588 224 101.069L139.341 0C95.8236 36.5798 49.198 69.2852 0 97.7411Z" stroke="#FFFFFF" stroke-width="1.23786" stroke-linecap="round" stroke-linejoin="round" stroke-miterlimit="10" fill="#3489FF" fill-rule="evenodd" transform="matrix(-1 0 0 1 1713.5 1984.5)"/><path d="M45.0446 195C105.626 173.021 164.167 145.812 220 113.682L154.154 0C104.961 28.3106 53.3784 52.2858 0 71.6502Z" stroke="#FFFFFF" stroke-width="1.23786" stroke-linecap="round" stroke-linejoin="round" stroke-miterlimit="10" fill="#33A6FF" fill-rule="evenodd" transform="matrix(-1 0 0 1 1867.5 2082.5)"/><path d="M22.8339 173C86.2231 161.85 148.515 145.202 209 123.242L164.03 0C110.738 19.3471 55.8522 34.0174 0 43.8403Z" stroke="#FFFFFF" stroke-width="1.23786" stroke-linecap="round" stroke-linejoin="round" stroke-miterlimit="10" fill="#33C9FE" fill-rule="evenodd" transform="matrix(-1 0 0 1 2031.5 2154.5)"/><path d="M0.00216462 146C64.3704 146 128.612 140.385 192 129.229L169.169 0C113.318 9.83029 56.7142 14.7714 0 14.7714Z" stroke="#FFFFFF" stroke-width="1.23786" stroke-linecap="round" stroke-linejoin="round" stroke-miterlimit="10" fill="#33E5FF" fill-rule="evenodd" transform="matrix(-1 0 0 1 2200.5 2198.5)"/><path d="M0 129.229C63.3906 140.385 127.632 146 192 146L191.998 14.7714C135.286 14.7714 78.6822 9.83029 22.831 0Z" stroke="#FFFFFF" stroke-width="1.23786" stroke-linecap="round" stroke-linejoin="round" stroke-miterlimit="10" fill="#33FAFF" fill-rule="evenodd" transform="matrix(-1 0 0 1 2392.5 2198.5)"/><path d="M0 123.242C60.4871 145.202 122.779 161.852 186.169 173L209 43.8403C153.148 34.0174 98.2618 19.3471 44.9683 0Z" stroke="#FFFFFF" stroke-width="1.23786" stroke-linecap="round" stroke-linejoin="round" stroke-miterlimit="10" fill="#34FEEE" fill-rule="evenodd" transform="matrix(-1 0 0 1 2579.5 2154.5)"/><path d="M0 113.682C55.5806 145.812 113.855 173.021 174.164 195L219 71.6502C165.865 52.2858 114.519 28.3106 65.5465 0Z" stroke="#FFFFFF" stroke-width="1.23786" stroke-linecap="round" stroke-linejoin="round" stroke-miterlimit="10" fill="#33FFCE" fill-rule="evenodd" transform="matrix(-1 0 0 1 2753.5 2082.5)"/><path d="M0 101.071C49.1719 142.587 101.851 179.706 157.441 212L223 97.739C174.022 69.2862 127.604 36.5815 84.2813 0Z" stroke="#FFFFFF" stroke-width="1.23786" stroke-linecap="round" stroke-linejoin="round" stroke-miterlimit="10" fill="#33FFA6" fill-rule="evenodd" transform="matrix(-1 0 0 1 2911.5 1984.5)"/><path d="M0 84.5945C41.4138 133.948 87.0547 179.589 136.408 221L221 120.187C177.515 83.7008 137.3 43.4851 100.811 0Z" stroke="#FFFFFF" stroke-width="1.23786" stroke-linecap="round" stroke-linejoin="round" stroke-miterlimit="10" fill="#33FF84" fill-rule="evenodd" transform="matrix(-1 0 0 1 3048.5 1864.5)"/><path d="M0 65.8532C32.1421 121.692 69.0837 174.61 110.407 224L211 139.341C174.591 95.8234 142.042 49.1979 113.721 0Z" stroke="#FFFFFF" stroke-width="1.23786" stroke-linecap="round" stroke-linejoin="round" stroke-miterlimit="10" fill="#3DFE6D" fill-rule="evenodd" transform="matrix(-1 0 0 1 3158.5 1725.5)"/><path d="M0 45.0429C22.0922 105.625 49.4396 164.166 81.737 220L196 154.153C167.544 104.959 143.448 53.3791 123.982 0Z" stroke="#FFFFFF" stroke-width="1.23786" stroke-linecap="round" stroke-linejoin="round" stroke-miterlimit="10" fill="#53FF53" fill-rule="evenodd" transform="matrix(-1 0 0 1 3240.5 1571.5)"/><path d="M0 22.8339C11.2142 86.2231 27.9587 148.515 50.0458 209L174 164.03C154.541 110.738 139.786 55.8522 129.906 0Z" stroke="#FFFFFF" stroke-width="1.23786" stroke-linecap="round" stroke-linejoin="round" stroke-miterlimit="10" fill="#81FF44" fill-rule="evenodd" transform="matrix(-1 0 0 1 3290.5 1407.5)"/><path d="M0 0C0.000360077 64.3686 5.60928 128.611 16.7652 192L146 169.169C136.171 113.317 131.228 56.7123 131.228 0Z" stroke="#FFFFFF" stroke-width="1.23786" stroke-linecap="round" stroke-linejoin="round" stroke-miterlimit="10" fill="#B6FF3C" fill-rule="evenodd" transform="matrix(-1 0 0 1 3306.5 1238.5)"/><path d="M16.7652 0C5.61 63.3906-0.000720154 127.632 0 192L131.228 191.998C131.228 135.286 136.171 78.6822 146 22.831Z" stroke="#FFFFFF" stroke-width="1.23786" stroke-linecap="round" stroke-linejoin="round" stroke-miterlimit="10" fill="#DDFF37" fill-rule="evenodd" transform="matrix(-1 0 0 1 3306.5 1046.5)"/><path d="M50.0454 0C27.959 60.4871 11.2131 122.779 0 186.169L129.906 209C139.786 153.148 154.541 98.2618 174 44.9683Z" stroke="#FFFFFF" stroke-width="1.23786" stroke-linecap="round" stroke-linejoin="round" stroke-miterlimit="10" fill="#FAFD34" fill-rule="evenodd" transform="matrix(-1 0 0 1 3290.5 860.5)"/><path d="M81.7374 0C49.4396 55.8344 22.0907 114.375 0 174.959L123.982 220C143.448 166.623 167.544 115.042 196 65.8458Z" stroke="#FFFFFF" stroke-width="1.23786" stroke-linecap="round" stroke-linejoin="round" stroke-miterlimit="10" fill="#FFF533" fill-rule="evenodd" transform="matrix(-1 0 0 1 3240.5 685.5)"/><path d="M110.407 0C69.0837 49.3923 32.1421 102.31 0 158.149L113.721 224C142.042 174.802 174.591 128.178 211 84.6591Z" stroke="#FFFFFF" stroke-width="1.23786" stroke-linecap="round" stroke-linejoin="round" stroke-miterlimit="10" fill="#FFEC33" fill-rule="evenodd" transform="matrix(-1 0 0 1 3158.5 527.5)"/><path d="M136.408 0C87.0547 41.2264 41.4113 86.6608 0 135.791L100.813 220C137.3 176.712 177.515 136.679 221 100.357Z" stroke="#FFFFFF" stroke-width="1.23786" stroke-linecap="round" stroke-linejoin="round" stroke-miterlimit="10" fill="#FFDF34" fill-rule="evenodd" transform="matrix(-1 0 0 1 3048.5 391.5)"/><path d="M157.441 0C101.851 32.1444 49.1719 69.0838 0 110.407L84.2813 211C127.604 174.591 174.022 142.042 223 113.721Z" stroke="#FFFFFF" stroke-width="1.23786" stroke-linecap="round" stroke-linejoin="round" stroke-miterlimit="10" fill="#FFCF35" fill-rule="evenodd" transform="matrix(-1 0 0 1 2911.5 280.5)"/><path d="M174.163 0C113.854 21.9795 55.5794 49.1874 0 81.3201L65.5498 195C114.519 166.689 165.864 142.716 219 123.35Z" stroke="#FFFFFF" stroke-width="1.23786" stroke-linecap="round" stroke-linejoin="round" stroke-miterlimit="10" fill="#FFAF32" fill-rule="evenodd" transform="matrix(-1 0 0 1 2753.5 199.5)"/><path d="M186.169 0C122.777 11.1501 60.4849 27.798 0 49.7582L44.9708 173C98.2618 153.653 153.148 138.983 209 129.16Z" stroke="#FFFFFF" stroke-width="1.23786" stroke-linecap="round" stroke-linejoin="round" stroke-miterlimit="10" fill="#FF7834" fill-rule="evenodd" transform="matrix(-1 0 0 1 2579.5 149.5)"/><path d="M191.998 0C127.632 0.000720154 63.3881 5.60928 0 16.7659L22.831 146C78.6822 136.172 135.286 131.228 192 131.228Z" stroke="#FFFFFF" stroke-width="1.23786" stroke-linecap="round" stroke-linejoin="round" stroke-miterlimit="10" fill="#FF4534" fill-rule="evenodd" transform="matrix(-1 0 0 1 2392.5 132.5)"/><path d="M192 16.7652C128.609 5.61 64.3665-0.000720154 0 0L0 131.228C56.7123 131.228 113.317 136.171 169.169 146Z" stroke="#FFFFFF" stroke-width="1.23786" stroke-linecap="round" stroke-linejoin="round" stroke-miterlimit="10" fill="#FA394C" fill-rule="evenodd" transform="matrix(-1 0 0 1 2200.5 132.5)"/><path d="M67.1616 0C116.182 28.2871 162.64 60.7988 206.001 97.1624L119.662 200C82.2885 168.657 42.2497 140.638 0 116.258Z" stroke="#A6A6A6" stroke-width="1.23786" stroke-linecap="round" stroke-linejoin="round" stroke-miterlimit="10" fill="none" fill-rule="evenodd" transform="matrix(-1 0 0 1 1780.5 394.5)"/><path d="M86.68 0C130.213 36.5295 170.473 76.7893 207 120.32L103.701 207C72.2195 169.48 37.5203 134.78 0 103.299Z" stroke="#A6A6A6" stroke-width="1.23786" stroke-linecap="round" stroke-linejoin="round" stroke-miterlimit="10" fill="none" fill-rule="evenodd" transform="matrix(-1 0 0 1 1661.5 491.5)"/><path d="M103.355 0C139.9 43.5732 172.572 90.2541 201 139.515L84.1605 207C59.6591 164.546 31.5 124.312 0 86.7574Z" stroke="#FFFFFF" stroke-width="1.23786" stroke-linecap="round" stroke-linejoin="round" stroke-miterlimit="10" fill="none" fill-rule="evenodd" transform="matrix(-1 0 0 1 1557.5 611.5)"/><path d="M116.352 0C144.662 49.1311 168.637 100.646 188 153.957L61.7491 200C45.0612 154.053 24.3995 109.655 0 67.3102Z" stroke="#A6A6A6" stroke-width="1.23786" stroke-linecap="round" stroke-linejoin="round" stroke-miterlimit="10" fill="none" fill-rule="evenodd" transform="matrix(-1 0 0 1 1473.5 751.5)"/><path d="M126.156 0C145.505 53.1802 160.176 107.947 170 163.681L37.7906 187C29.3221 138.966 16.6778 91.7639 0 45.93Z" stroke="#A6A6A6" stroke-width="1.23786" stroke-linecap="round" stroke-linejoin="round" stroke-miterlimit="10" fill="none" fill-rule="evenodd" transform="matrix(-1 0 0 1 1411.5 905.5)"/><path d="M132.233 0C142.061 55.7937 147 112.344 147 169L12.7281 169C12.7281 120.169 8.46982 71.4325 0 23.3437Z" stroke="#A6A6A6" stroke-width="1.23786" stroke-linecap="round" stroke-linejoin="round" stroke-miterlimit="10" fill="none" fill-rule="evenodd" transform="matrix(-1 0 0 1 1373.5 1069.5)"/><path d="M147 0.00216246C147 56.6576 142.059 113.205 132.233 169L0 145.655C8.46744 97.5667 12.7258 48.831 12.7258 0Z" stroke="#A6A6A6" stroke-width="1.23786" stroke-linecap="round" stroke-linejoin="round" stroke-miterlimit="10" fill="none" fill-rule="evenodd" transform="matrix(-1 0 0 1 1373.5 1238.5)"/><path d="M170 23.3193C160.176 79.0516 145.505 133.82 126.156 187L0 141.071C16.6778 95.2374 29.3221 48.034 37.7906 0Z" stroke="#A6A6A6" stroke-width="1.23786" stroke-linecap="round" stroke-linejoin="round" stroke-miterlimit="10" fill="none" fill-rule="evenodd" transform="matrix(-1 0 0 1 1411.5 1384.5)"/><path d="M188 46.0448C168.637 99.3555 144.662 150.87 116.352 200L0 132.691C24.3995 90.3444 45.0612 45.9467 61.7516 0Z" stroke="#A6A6A6" stroke-width="1.23786" stroke-linecap="round" stroke-linejoin="round" stroke-miterlimit="10" fill="none" fill-rule="evenodd" transform="matrix(-1 0 0 1 1473.5 1525.5)"/><path d="M201 67.1615C172.571 116.184 139.899 162.64 103.351 206L0 119.662C31.4981 82.2883 59.6597 42.2496 84.1593 0Z" stroke="#A6A6A6" stroke-width="1.23786" stroke-linecap="round" stroke-linejoin="round" stroke-miterlimit="10" fill="none" fill-rule="evenodd" transform="matrix(-1 0 0 1 1557.5 1658.5)"/><path d="M206.001 86.2612C169.65 129.582 129.584 169.647 86.2603 206L0 103.198C37.3374 71.8685 71.8695 37.3369 103.2 0Z" stroke="#A6A6A6" stroke-width="1.23786" stroke-linecap="round" stroke-linejoin="round" stroke-miterlimit="10" fill="none" fill-rule="evenodd" transform="matrix(-1 0 0 1 1660.5 1778.5)"/><path d="M206.001 103.354C162.64 139.899 116.182 172.574 67.1616 201L0 84.1593C42.2519 59.6572 82.291 31.4981 119.662 0Z" stroke="#A6A6A6" stroke-width="1.23786" stroke-linecap="round" stroke-linejoin="round" stroke-miterlimit="10" fill="none" fill-rule="evenodd" transform="matrix(-1 0 0 1 1780.5 1881.5)"/><path d="M200 116.973C150.87 145.432 99.353 169.534 46.0448 189L0 62.0801C45.9488 45.3009 90.3469 24.5293 132.691 0Z" stroke="#A6A6A6" stroke-width="1.23786" stroke-linecap="round" stroke-linejoin="round" stroke-miterlimit="10" fill="none" fill-rule="evenodd" transform="matrix(-1 0 0 1 1913.5 1965.5)"/><path d="M188 126.898C134.538 146.363 79.4754 161.119 23.4443 171L0 38.013C48.2915 29.4947 95.748 16.7759 141.827 0Z" stroke="#A6A6A6" stroke-width="1.23786" stroke-linecap="round" stroke-linejoin="round" stroke-miterlimit="10" fill="none" fill-rule="evenodd" transform="matrix(-1 0 0 1 2055.5 2027.5)"/><path d="M169 132.233C113.204 142.06 56.6557 147 0 147L0 12.7258C48.8293 12.7258 97.5678 8.46742 145.656 0Z" stroke="#A6A6A6" stroke-width="1.23786" stroke-linecap="round" stroke-linejoin="round" stroke-miterlimit="10" fill="none" fill-rule="evenodd" transform="matrix(-1 0 0 1 2200.5 2065.5)"/><path d="M169.998 147C113.008 147 56.1257 142.06 0 132.233L23.4837 0C71.8564 8.46742 120.883 12.7258 170.001 12.7258Z" stroke="#A6A6A6" stroke-width="1.23786" stroke-linecap="round" stroke-linejoin="round" stroke-miterlimit="10" fill="none" fill-rule="evenodd" transform="matrix(-1 0 0 1 2370.5 2065.5)"/><path d="M164.556 171C108.525 161.118 53.4624 146.363 0 126.897L46.1756 0C92.2546 16.774 139.711 29.4926 188 38.011Z" stroke="#A6A6A6" stroke-width="1.23786" stroke-linecap="round" stroke-linejoin="round" stroke-miterlimit="10" fill="none" fill-rule="evenodd" transform="matrix(-1 0 0 1 2534.5 2027.5)"/><path d="M153.955 189C100.647 169.534 49.1304 145.432 0 116.971L67.3115 0C109.656 24.5293 154.053 45.3009 200 62.0801Z" stroke="#A6A6A6" stroke-width="1.23786" stroke-linecap="round" stroke-linejoin="round" stroke-miterlimit="10" fill="none" fill-rule="evenodd" transform="matrix(-1 0 0 1 2688.5 1965.5)"/><path d="M139.513 201C90.2541 172.574 43.571 139.899 0 103.354L86.7574 0C124.312 31.4981 164.546 59.6597 207 84.1593Z" stroke="#A6A6A6" stroke-width="1.23786" stroke-linecap="round" stroke-linejoin="round" stroke-miterlimit="10" fill="none" fill-rule="evenodd" transform="matrix(-1 0 0 1 2827.5 1881.5)"/><path d="M120.321 206C76.7869 169.649 36.527 129.584 0 86.2601L103.299 0C134.783 37.3399 169.48 71.8693 207.001 103.199Z" stroke="#A6A6A6" stroke-width="1.23786" stroke-linecap="round" stroke-linejoin="round" stroke-miterlimit="10" fill="none" fill-rule="evenodd" transform="matrix(-1 0 0 1 2947.5 1778.5)"/><path d="M97.16 206C60.7968 162.639 28.285 116.181 0 67.1598L116.259 0C140.638 42.2501 168.657 82.2893 200 119.661Z" stroke="#A6A6A6" stroke-width="1.23786" stroke-linecap="round" stroke-linejoin="round" stroke-miterlimit="10" fill="none" fill-rule="evenodd" transform="matrix(-1 0 0 1 3044.5 1658.5)"/><path d="M71.6471 200C43.3376 150.869 19.3633 99.352 0 46.0432L126.249 0C142.937 45.9472 163.601 90.3455 188 132.69Z" stroke="#A6A6A6" stroke-width="1.23786" stroke-linecap="round" stroke-linejoin="round" stroke-miterlimit="10" fill="none" fill-rule="evenodd" transform="matrix(-1 0 0 1 3116.5 1525.5)"/><path d="M43.8445 187C24.493 133.82 9.82385 79.0516 0 23.3193L132.21 0C140.678 48.034 153.322 95.2374 170 141.071Z" stroke="#A6A6A6" stroke-width="1.23786" stroke-linecap="round" stroke-linejoin="round" stroke-miterlimit="10" fill="none" fill-rule="evenodd" transform="matrix(-1 0 0 1 3160.5 1384.5)"/><path d="M14.7673 169C4.94187 113.204 0 56.6558 0 0L134.272 0C134.272 48.8294 138.531 97.568 147 145.657Z" stroke="#A6A6A6" stroke-width="1.23786" stroke-linecap="round" stroke-linejoin="round" stroke-miterlimit="10" fill="none" fill-rule="evenodd" transform="matrix(-1 0 0 1 3175.5 1238.5)"/><path d="M0 169C0 112.343 4.94194 55.7955 14.7675 0L147 23.3456C138.533 71.4337 134.274 120.172 134.274 169Z" stroke="#A6A6A6" stroke-width="1.23786" stroke-linecap="round" stroke-linejoin="round" stroke-miterlimit="10" fill="none" fill-rule="evenodd" transform="matrix(-1 0 0 1 3175.5 1069.5)"/><path d="M0 163.679C9.82385 107.946 24.4952 53.1773 43.8445 0L170 45.9294C153.322 91.7626 140.678 138.966 132.212 187Z" stroke="#A6A6A6" stroke-width="1.23786" stroke-linecap="round" stroke-linejoin="round" stroke-miterlimit="10" fill="none" fill-rule="evenodd" transform="matrix(-1 0 0 1 3160.5 905.5)"/><path d="M0 153.955C19.3636 100.646 43.3381 49.1285 71.6481 0L188 67.3102C163.601 109.655 142.939 154.055 126.251 200Z" stroke="#A6A6A6" stroke-width="1.23786" stroke-linecap="round" stroke-linejoin="round" stroke-miterlimit="10" fill="none" fill-rule="evenodd" transform="matrix(-1 0 0 1 3116.5 751.5)"/><path d="M0 139.513C28.2874 90.2541 60.7974 43.571 97.1636 0L200 86.7595C168.659 124.312 140.64 164.546 116.26 207Z" stroke="#A6A6A6" stroke-width="1.23786" stroke-linecap="round" stroke-linejoin="round" stroke-miterlimit="10" fill="none" fill-rule="evenodd" transform="matrix(-1 0 0 1 3044.5 611.5)"/><path d="M0 120.32C36.5274 76.7867 76.7877 36.5269 120.322 0L207 103.299C169.482 134.783 134.782 169.482 103.3 207Z" stroke="#A6A6A6" stroke-width="1.23786" stroke-linecap="round" stroke-linejoin="round" stroke-miterlimit="10" fill="none" fill-rule="evenodd" transform="matrix(-1 0 0 1 2947.5 491.5)"/><path d="M0 97.1624C43.571 60.7967 90.2541 28.2871 139.513 0L207 116.258C164.543 140.638 124.31 168.659 86.7574 200Z" stroke="#A6A6A6" stroke-width="1.23786" stroke-linecap="round" stroke-linejoin="round" stroke-miterlimit="10" fill="none" fill-rule="evenodd" transform="matrix(-1 0 0 1 2827.5 394.5)"/><path d="M0 72.027C49.1311 43.5665 100.646 19.4666 153.957 0L200 126.92C154.053 143.7 109.652 164.471 67.3102 189Z" stroke="#A6A6A6" stroke-width="1.23786" stroke-linecap="round" stroke-linejoin="round" stroke-miterlimit="10" fill="none" fill-rule="evenodd" transform="matrix(-1 0 0 1 2688.5 322.5)"/><path d="M0 44.1026C53.4624 24.6393 108.525 9.88166 164.556 0L188 132.99C139.709 141.506 92.2524 154.227 46.1731 171.001Z" stroke="#A6A6A6" stroke-width="1.23786" stroke-linecap="round" stroke-linejoin="round" stroke-miterlimit="10" fill="none" fill-rule="evenodd" transform="matrix(-1 0 0 1 2534.5 278.5)"/><path d="M0 14.8677C56.1257 4.97547 113.01 0 170.001 0L170.001 135.185C120.88 135.185 71.8543 139.473 23.4837 148Z" stroke="#A6A6A6" stroke-width="1.23786" stroke-linecap="round" stroke-linejoin="round" stroke-miterlimit="10" fill="none" fill-rule="evenodd" transform="matrix(-1 0 0 1 2370.5 263.5)"/><path d="M0.00216246 0C56.6575 0 113.205 4.97547 169 14.8677L145.655 148C97.5665 139.473 48.8287 135.185 0 135.185Z" stroke="#A6A6A6" stroke-width="1.23786" stroke-linecap="round" stroke-linejoin="round" stroke-miterlimit="10" fill="none" fill-rule="evenodd" transform="matrix(-1 0 0 1 2200.5 263.5)"/><path d="M23.444 0C79.4743 9.88166 134.536 24.6393 188 44.1047L141.823 171.001C95.7442 154.225 48.2887 141.506 0 132.99Z" stroke="#A6A6A6" stroke-width="1.23786" stroke-linecap="round" stroke-linejoin="round" stroke-miterlimit="10" fill="none" fill-rule="evenodd" transform="matrix(-1 0 0 1 2055.5 278.5)"/><path d="M86.5074 0C123.951 31.5849 158.581 66.3954 190 104.039L86.905 191C60.5231 159.392 31.4426 130.16 0 103.637Z" stroke="#A6A6A6" stroke-width="1.23786" stroke-linecap="round" stroke-linejoin="round" stroke-miterlimit="10" fill="none" fill-rule="evenodd" transform="matrix(-1 0 0 1 1747.5 594.5)"/><path d="M103.071 0C134.483 37.4075 162.565 77.4855 187 119.776L70.4785 187C49.9598 151.487 26.3782 117.834 0 86.4221Z" stroke="#A6A6A6" stroke-width="1.23786" stroke-linecap="round" stroke-linejoin="round" stroke-miterlimit="10" fill="none" fill-rule="evenodd" transform="matrix(-1 0 0 1 1660.5 698.5)"/><path d="M116.938 0C141.46 42.4076 162.226 86.8726 179 132.888L52.1136 179C38.028 140.36 20.5897 103.022 0 67.4107Z" stroke="#A6A6A6" stroke-width="1.23786" stroke-linecap="round" stroke-linejoin="round" stroke-miterlimit="10" fill="none" fill-rule="evenodd" transform="matrix(-1 0 0 1 1590.5 818.5)"/><path d="M126.966 0C143.751 45.7255 156.477 92.8172 165 140.738L31.9365 164C24.7802 123.759 14.0947 84.2176 0 45.8207Z" stroke="#A6A6A6" stroke-width="1.23786" stroke-linecap="round" stroke-linejoin="round" stroke-miterlimit="10" fill="none" fill-rule="evenodd" transform="matrix(-1 0 0 1 1538.5 951.5)"/><path d="M133.183 0C141.712 48.2022 146 97.0558 146 146L10.7632 146C10.7632 104.898 7.1628 63.8779 0 23.401Z" stroke="#A6A6A6" stroke-width="1.23786" stroke-linecap="round" stroke-linejoin="round" stroke-miterlimit="10" fill="none" fill-rule="evenodd" transform="matrix(-1 0 0 1 1506.5 1092.5)"/><path d="M146 0C146 48.9446 141.712 97.7982 133.183 146L0 122.597C7.1628 82.12 10.7632 41.0998 10.7632 0Z" stroke="#A6A6A6" stroke-width="1.23786" stroke-linecap="round" stroke-linejoin="round" stroke-miterlimit="10" fill="none" fill-rule="evenodd" transform="matrix(-1 0 0 1 1506.5 1238.5)"/><path d="M165 23.4058C156.477 71.618 143.751 118.997 126.966 165L0 118.898C14.0947 80.2678 24.7802 40.4853 31.9365 0Z" stroke="#A6A6A6" stroke-width="1.23786" stroke-linecap="round" stroke-linejoin="round" stroke-miterlimit="10" fill="none" fill-rule="evenodd" transform="matrix(-1 0 0 1 1538.5 1360.5)"/><path d="M179 46.1136C162.228 92.1264 141.462 136.593 116.939 179L0 111.588C20.5922 75.9776 38.0286 38.6399 52.1144 0Z" stroke="#A6A6A6" stroke-width="1.23786" stroke-linecap="round" stroke-linejoin="round" stroke-miterlimit="10" fill="none" fill-rule="evenodd" transform="matrix(-1 0 0 1 1590.5 1479.5)"/><path d="M187 67.2256C162.565 109.516 134.483 149.593 103.071 187L0 100.577C26.3782 69.1647 49.9598 35.5123 70.4785 0Z" stroke="#A6A6A6" stroke-width="1.23786" stroke-linecap="round" stroke-linejoin="round" stroke-miterlimit="10" fill="none" fill-rule="evenodd" transform="matrix(-1 0 0 1 1660.5 1591.5)"/><path d="M190 86.5062C158.581 123.95 123.95 158.581 86.5039 190L0 86.9035C31.443 60.5216 60.5217 31.4404 86.9061 0Z" stroke="#A6A6A6" stroke-width="1.23786" stroke-linecap="round" stroke-linejoin="round" stroke-miterlimit="10" fill="none" fill-rule="evenodd" transform="matrix(-1 0 0 1 1747.5 1691.5)"/><path d="M188 103.07C150.39 134.482 110.099 162.567 67.5824 187L0 70.4769C35.7021 49.9602 69.537 26.376 101.117 0Z" stroke="#A6A6A6" stroke-width="1.23786" stroke-linecap="round" stroke-linejoin="round" stroke-miterlimit="10" fill="none" fill-rule="evenodd" transform="matrix(-1 0 0 1 1848.5 1778.5)"/><path d="M179 116.284C136.592 140.67 92.1273 161.319 46.1119 178L0 51.8225C38.6403 37.8156 75.9784 20.4769 111.59 0Z" stroke="#A6A6A6" stroke-width="1.23786" stroke-linecap="round" stroke-linejoin="round" stroke-miterlimit="10" fill="none" fill-rule="evenodd" transform="matrix(-1 0 0 1 1959.5 1849.5)"/><path d="M165 126.199C118.998 142.88 71.619 155.529 23.4061 164L0 31.743C40.4858 24.63 80.2714 14.0093 118.9 0Z" stroke="#A6A6A6" stroke-width="1.23786" stroke-linecap="round" stroke-linejoin="round" stroke-miterlimit="10" fill="none" fill-rule="evenodd" transform="matrix(-1 0 0 1 2078.5 1901.5)"/><path d="M145 133.183C97.1281 141.712 48.6114 146 0 146L0.00215274 10.7654C40.8206 10.7654 81.562 7.1628 121.759 0Z" stroke="#A6A6A6" stroke-width="1.23786" stroke-linecap="round" stroke-linejoin="round" stroke-miterlimit="10" fill="none" fill-rule="evenodd" transform="matrix(-1 0 0 1 2200.5 1932.5)"/><path d="M146 146C97.0541 146 48.2039 141.712 0 133.183L23.4027 0C63.8793 7.1628 104.901 10.7632 146 10.7654Z" stroke="#A6A6A6" stroke-width="1.23786" stroke-linecap="round" stroke-linejoin="round" stroke-miterlimit="10" fill="none" fill-rule="evenodd" transform="matrix(-1 0 0 1 2346.5 1932.5)"/><path d="M141.595 164C93.382 155.529 46.0059 142.88 0 126.197L46.102 0C84.7322 14.0093 124.517 24.63 165 31.7451Z" stroke="#A6A6A6" stroke-width="1.23786" stroke-linecap="round" stroke-linejoin="round" stroke-miterlimit="10" fill="none" fill-rule="evenodd" transform="matrix(-1 0 0 1 2488.5 1901.5)"/><path d="M132.147 178C86.3887 161.319 42.1727 140.67 0 116.284L67.0354 0C102.447 20.4769 139.576 37.8156 178 51.825Z" stroke="#A6A6A6" stroke-width="1.23786" stroke-linecap="round" stroke-linejoin="round" stroke-miterlimit="10" fill="none" fill-rule="evenodd" transform="matrix(-1 0 0 1 2620.5 1849.5)"/><path d="M119.777 187C77.4867 162.565 37.4092 134.482 0 103.07L86.4233 0C117.835 26.3782 151.49 49.9602 187 70.4794Z" stroke="#A6A6A6" stroke-width="1.23786" stroke-linecap="round" stroke-linejoin="round" stroke-miterlimit="10" fill="none" fill-rule="evenodd" transform="matrix(-1 0 0 1 2740.5 1778.5)"/><path d="M103.493 190C66.0492 158.581 31.4191 123.95 0 86.5062L103.095 0C129.48 31.4429 158.558 60.5216 190 86.906Z" stroke="#A6A6A6" stroke-width="1.23786" stroke-linecap="round" stroke-linejoin="round" stroke-miterlimit="10" fill="none" fill-rule="evenodd" transform="matrix(-1 0 0 1 2844.5 1691.5)"/><path d="M83.9293 187C52.5176 149.593 24.4351 109.513 0 67.2231L116.522 0C137.041 35.5123 160.622 69.1672 187 100.579Z" stroke="#A6A6A6" stroke-width="1.23786" stroke-linecap="round" stroke-linejoin="round" stroke-miterlimit="10" fill="none" fill-rule="evenodd" transform="matrix(-1 0 0 1 2928.5 1591.5)"/><path d="M62.0624 179C37.5426 136.59 16.7744 92.1253 0 46.1095L126.886 0C140.972 38.6404 158.41 75.9785 179 111.587Z" stroke="#A6A6A6" stroke-width="1.23786" stroke-linecap="round" stroke-linejoin="round" stroke-miterlimit="10" fill="none" fill-rule="evenodd" transform="matrix(-1 0 0 1 2990.5 1479.5)"/><path d="M38.0341 165C21.2485 118.996 8.52302 71.6168 0 23.404L133.064 0C140.22 40.4837 150.906 80.2692 165 118.9Z" stroke="#A6A6A6" stroke-width="1.23786" stroke-linecap="round" stroke-linejoin="round" stroke-miterlimit="10" fill="none" fill-rule="evenodd" transform="matrix(-1 0 0 1 3028.5 1360.5)"/><path d="M12.7318 146C4.25953 97.8004 0 48.9468 0 0L134.311 0.00216759C134.311 41.1044 137.887 82.1247 145 122.602Z" stroke="#A6A6A6" stroke-width="1.23786" stroke-linecap="round" stroke-linejoin="round" stroke-miterlimit="10" fill="none" fill-rule="evenodd" transform="matrix(-1 0 0 1 3040.5 1238.5)"/><path d="M0 146C0 97.0558 4.25953 48.2022 12.7318 0L145 23.401C137.887 63.8779 134.311 104.9 134.309 146Z" stroke="#A6A6A6" stroke-width="1.23786" stroke-linecap="round" stroke-linejoin="round" stroke-miterlimit="10" fill="none" fill-rule="evenodd" transform="matrix(-1 0 0 1 3040.5 1092.5)"/><path d="M0 140.736C8.5206 92.8185 21.2466 45.727 38.0321 0L165 45.8226C150.905 84.2186 140.22 123.763 133.063 164Z" stroke="#A6A6A6" stroke-width="1.23786" stroke-linecap="round" stroke-linejoin="round" stroke-miterlimit="10" fill="none" fill-rule="evenodd" transform="matrix(-1 0 0 1 3028.5 951.5)"/><path d="M0 132.889C16.7746 86.8741 37.5405 42.4097 62.0632 0L179 67.4121C158.408 103.025 140.972 140.363 126.886 179Z" stroke="#A6A6A6" stroke-width="1.23786" stroke-linecap="round" stroke-linejoin="round" stroke-miterlimit="10" fill="none" fill-rule="evenodd" transform="matrix(-1 0 0 1 2990.5 818.5)"/><path d="M0 119.777C24.4354 77.4867 52.5183 37.4092 83.9325 0L187 86.4233C160.624 117.835 137.042 151.49 116.523 187Z" stroke="#A6A6A6" stroke-width="1.23786" stroke-linecap="round" stroke-linejoin="round" stroke-miterlimit="10" fill="none" fill-rule="evenodd" transform="matrix(-1 0 0 1 2928.5 698.5)"/><path d="M0 104.04C31.4217 66.3994 66.0492 31.5845 103.495 0L190 103.638C158.555 130.161 129.477 159.392 103.093 191Z" stroke="#A6A6A6" stroke-width="1.23786" stroke-linecap="round" stroke-linejoin="round" stroke-miterlimit="10" fill="none" fill-rule="evenodd" transform="matrix(-1 0 0 1 2844.5 594.5)"/><path d="M0 83.9293C37.4092 52.5197 77.4867 24.4351 119.777 0L187 116.522C151.488 137.041 117.833 160.622 86.4211 187Z" stroke="#A6A6A6" stroke-width="1.23786" stroke-linecap="round" stroke-linejoin="round" stroke-miterlimit="10" fill="none" fill-rule="evenodd" transform="matrix(-1 0 0 1 2740.5 511.5)"/><path d="M0 61.7142C42.1707 37.3307 86.3873 16.6809 132.146 0L178 126.177C139.576 140.184 102.446 157.525 67.0341 178Z" stroke="#A6A6A6" stroke-width="1.23786" stroke-linecap="round" stroke-linejoin="round" stroke-miterlimit="10" fill="none" fill-rule="evenodd" transform="matrix(-1 0 0 1 2620.5 449.5)"/><path d="M0 37.8016C46.0043 21.12 93.381 8.46896 141.596 0L165 132.257C124.514 139.37 84.7286 149.991 46.1001 164Z" stroke="#A6A6A6" stroke-width="1.23786" stroke-linecap="round" stroke-linejoin="round" stroke-miterlimit="10" fill="none" fill-rule="evenodd" transform="matrix(-1 0 0 1 2488.5 411.5)"/><path d="M0 12.7318C48.2022 4.26169 97.0533 0 146 0L146 134.311C104.898 134.311 63.8757 137.889 23.401 145Z" stroke="#A6A6A6" stroke-width="1.23786" stroke-linecap="round" stroke-linejoin="round" stroke-miterlimit="10" fill="none" fill-rule="evenodd" transform="matrix(-1 0 0 1 2346.5 398.5)"/><path d="M0.0021527 0C48.6106 0.00252043 97.1286 4.25953 145 12.7318L121.757 145C81.5584 137.887 40.8199 134.311 0 134.311Z" stroke="#A6A6A6" stroke-width="1.23786" stroke-linecap="round" stroke-linejoin="round" stroke-miterlimit="10" fill="none" fill-rule="evenodd" transform="matrix(-1 0 0 1 2200.5 398.5)"/><path d="M23.4058 0C71.618 8.47148 118.997 21.1179 165 37.8016L118.898 164C80.2678 149.991 40.4853 139.37 0 132.257Z" stroke="#A6A6A6" stroke-width="1.23786" stroke-linecap="round" stroke-linejoin="round" stroke-miterlimit="10" fill="none" fill-rule="evenodd" transform="matrix(-1 0 0 1 2078.5 411.5)"/><path d="M46.1114 0C92.1262 16.6809 136.593 37.3307 179 61.7163L111.588 178C75.9775 157.523 38.6399 140.184 0 126.177Z" stroke="#A6A6A6" stroke-width="1.23786" stroke-linecap="round" stroke-linejoin="round" stroke-miterlimit="10" fill="none" fill-rule="evenodd" transform="matrix(-1 0 0 1 1959.5 449.5)"/><path d="M96.7844 0C123.064 31.4239 146.558 65.089 167 100.615L57.584 164C40.8194 134.867 21.5533 107.257 0 81.4847Z" stroke="#A6A6A6" stroke-width="1.23786" stroke-linecap="round" stroke-linejoin="round" stroke-miterlimit="10" fill="none" fill-rule="evenodd" transform="matrix(-1 0 0 1 1757.5 785.5)"/><path d="M109.314 0C129.735 35.5994 147.03 72.9249 161 111.552L42.387 155C30.9326 123.324 16.7485 92.7109 0 63.5169Z" stroke="#A6A6A6" stroke-width="1.23786" stroke-linecap="round" stroke-linejoin="round" stroke-miterlimit="10" fill="none" fill-rule="evenodd" transform="matrix(-1 0 0 1 1699.5 885.5)"/><path d="M119.192 0C133.23 38.3672 143.873 77.8792 151 118.089L26.0861 140C20.2423 107.025 11.5125 74.6202 0 43.155Z" stroke="#A6A6A6" stroke-width="1.23786" stroke-linecap="round" stroke-linejoin="round" stroke-miterlimit="10" fill="none" fill-rule="evenodd" transform="matrix(-1 0 0 1 1657.5 997.5)"/><path d="M125.26 0C132.407 40.6071 136 81.7637 136 122.998L8.81011 123C8.81011 89.183 5.86243 55.4316 0 22.1288Z" stroke="#A6A6A6" stroke-width="1.23786" stroke-linecap="round" stroke-linejoin="round" stroke-miterlimit="10" fill="none" fill-rule="evenodd" transform="matrix(-1 0 0 1 1631.5 1115.5)"/><path d="M136 0C136 40.8996 132.407 81.7202 125.26 122L0 100.053C5.86243 67.0207 8.81011 33.5405 8.81011 0Z" stroke="#A6A6A6" stroke-width="1.23786" stroke-linecap="round" stroke-linejoin="round" stroke-miterlimit="10" fill="none" fill-rule="evenodd" transform="matrix(-1 0 0 1 1631.5 1238.5)"/><path d="M151 22.0658C143.873 62.5634 133.23 102.358 119.192 141L0 97.5363C11.5125 65.8483 20.2423 33.2111 26.0886 0Z" stroke="#A6A6A6" stroke-width="1.23786" stroke-linecap="round" stroke-linejoin="round" stroke-miterlimit="10" fill="none" fill-rule="evenodd" transform="matrix(-1 0 0 1 1657.5 1338.5)"/><path d="M161 43.4478C147.03 82.0754 129.737 119.401 109.314 155L0 91.4833C16.7485 62.2894 30.9326 31.6787 42.3892 0Z" stroke="#A6A6A6" stroke-width="1.23786" stroke-linecap="round" stroke-linejoin="round" stroke-miterlimit="10" fill="none" fill-rule="evenodd" transform="matrix(-1 0 0 1 1699.5 1436.5)"/><path d="M167 63.3853C146.56 98.911 123.064 132.576 96.7866 164L0 82.5152C21.5533 56.7451 40.8194 29.1332 57.584 0Z" stroke="#A6A6A6" stroke-width="1.23786" stroke-linecap="round" stroke-linejoin="round" stroke-miterlimit="10" fill="none" fill-rule="evenodd" transform="matrix(-1 0 0 1 1757.5 1527.5)"/><path d="M169 81.3214C142.528 112.682 113.353 141.687 81.8062 168L0 71.0859C25.8711 49.5032 49.797 25.7185 71.5079 0Z" stroke="#A6A6A6" stroke-width="1.23786" stroke-linecap="round" stroke-linejoin="round" stroke-miterlimit="10" fill="none" fill-rule="evenodd" transform="matrix(-1 0 0 1 1829.5 1610.5)"/><path d="M164 97.3625C132.577 123.8 98.9097 147.435 63.3845 168L0 57.9269C29.1328 41.0621 56.7443 21.6805 82.5141 0Z" stroke="#A6A6A6" stroke-width="1.23786" stroke-linecap="round" stroke-linejoin="round" stroke-miterlimit="10" fill="none" fill-rule="evenodd" transform="matrix(-1 0 0 1 1911.5 1681.5)"/><path d="M155 109.993C119.403 130.544 82.0754 147.944 43.4478 162.001L0 42.6526C31.6787 31.1248 62.2894 16.8526 91.4833 0Z" stroke="#A6A6A6" stroke-width="1.23786" stroke-linecap="round" stroke-linejoin="round" stroke-miterlimit="10" fill="none" fill-rule="evenodd" transform="matrix(-1 0 0 1 2003.5 1739.5)"/><path d="M141.001 119.191C102.361 133.229 62.5636 143.872 22.068 151L0 26.0843C33.2112 20.2401 65.8484 11.5126 97.5365 0Z" stroke="#A6A6A6" stroke-width="1.23786" stroke-linecap="round" stroke-linejoin="round" stroke-miterlimit="10" fill="none" fill-rule="evenodd" transform="matrix(-1 0 0 1 2100.5 1781.5)"/><path d="M122 124.339C81.721 131.434 40.8988 135 0 135L0 8.743C33.5398 8.743 67.0193 5.8173 100.051 0Z" stroke="#A6A6A6" stroke-width="1.23786" stroke-linecap="round" stroke-linejoin="round" stroke-miterlimit="10" fill="none" fill-rule="evenodd" transform="matrix(-1 0 0 1 2200.5 1808.5)"/><path d="M123 135C81.7663 134.998 40.6093 131.432 0 124.337L22.1288 0C55.4316 5.81925 89.183 8.74521 123 8.74521Z" stroke="#A6A6A6" stroke-width="1.23786" stroke-linecap="round" stroke-linejoin="round" stroke-miterlimit="10" fill="none" fill-rule="evenodd" transform="matrix(-1 0 0 1 2323.5 1808.5)"/><path d="M118.932 151C78.4376 143.872 38.6412 133.229 0 119.191L43.4633 0C75.1532 11.5126 107.789 20.2401 141 26.0864Z" stroke="#A6A6A6" stroke-width="1.23786" stroke-linecap="round" stroke-linejoin="round" stroke-miterlimit="10" fill="none" fill-rule="evenodd" transform="matrix(-1 0 0 1 2442.5 1781.5)"/><path d="M111.552 162.001C72.9274 147.946 35.5994 130.544 0 109.993L63.5169 0C92.7109 16.8526 123.324 31.1248 155 42.6526Z" stroke="#A6A6A6" stroke-width="1.23786" stroke-linecap="round" stroke-linejoin="round" stroke-miterlimit="10" fill="none" fill-rule="evenodd" transform="matrix(-1 0 0 1 2553.5 1739.5)"/><path d="M100.615 168C65.0915 147.437 31.4239 123.802 0 97.3651L81.4847 0C107.257 21.6805 134.867 41.0621 164 57.9269Z" stroke="#A6A6A6" stroke-width="1.23786" stroke-linecap="round" stroke-linejoin="round" stroke-miterlimit="10" fill="none" fill-rule="evenodd" transform="matrix(-1 0 0 1 2654.5 1681.5)"/><path d="M87.1947 168C55.6473 141.685 26.472 112.683 0 81.3223L97.4932 0C119.202 25.7181 143.128 49.5049 169 71.0849Z" stroke="#A6A6A6" stroke-width="1.23786" stroke-linecap="round" stroke-linejoin="round" stroke-miterlimit="10" fill="none" fill-rule="evenodd" transform="matrix(-1 0 0 1 2741.5 1610.5)"/><path d="M70.6364 164C44.1992 132.577 20.5646 98.9097 0 63.3845L110.072 0C126.936 29.1328 146.32 56.7443 168 82.5141Z" stroke="#A6A6A6" stroke-width="1.23786" stroke-linecap="round" stroke-linejoin="round" stroke-miterlimit="10" fill="none" fill-rule="evenodd" transform="matrix(-1 0 0 1 2811.5 1527.5)"/><path d="M52.0072 155C31.4595 119.403 14.0568 82.0754 0 43.4478L119.35 0C130.877 31.6787 145.147 62.2894 162 91.4858Z" stroke="#A6A6A6" stroke-width="1.23786" stroke-linecap="round" stroke-linejoin="round" stroke-miterlimit="10" fill="none" fill-rule="evenodd" transform="matrix(-1 0 0 1 2863.5 1436.5)"/><path d="M31.809 141C17.7706 102.359 7.1278 62.5623 0 22.0676L124.916 0C130.76 33.2105 139.49 65.8471 151 97.537Z" stroke="#A6A6A6" stroke-width="1.23786" stroke-linecap="round" stroke-linejoin="round" stroke-miterlimit="10" fill="none" fill-rule="evenodd" transform="matrix(-1 0 0 1 2895.5 1338.5)"/><path d="M10.7401 122C3.59235 81.7213 0 40.8989 0 0L127.192 0C127.192 33.5399 130.138 67.0195 136 100.051Z" stroke="#A6A6A6" stroke-width="1.23786" stroke-linecap="round" stroke-linejoin="round" stroke-miterlimit="10" fill="none" fill-rule="evenodd" transform="matrix(-1 0 0 1 2906.5 1238.5)"/><path d="M0 123C0 81.7663 3.59235 40.6093 10.7401 0L136 22.1288C130.138 55.4316 127.192 89.183 127.19 123Z" stroke="#A6A6A6" stroke-width="1.23786" stroke-linecap="round" stroke-linejoin="round" stroke-miterlimit="10" fill="none" fill-rule="evenodd" transform="matrix(-1 0 0 1 2906.5 1115.5)"/><path d="M0 118.089C7.12768 77.8813 17.7703 38.3672 31.8085 0L151 43.155C139.487 74.6202 130.758 107.025 124.911 140Z" stroke="#A6A6A6" stroke-width="1.23786" stroke-linecap="round" stroke-linejoin="round" stroke-miterlimit="10" fill="none" fill-rule="evenodd" transform="matrix(-1 0 0 1 2895.5 997.5)"/><path d="M0 111.552C14.0568 72.9274 31.4573 35.5994 52.0072 0L162 63.5169C145.147 92.7109 130.877 123.324 119.348 155Z" stroke="#A6A6A6" stroke-width="1.23786" stroke-linecap="round" stroke-linejoin="round" stroke-miterlimit="10" fill="none" fill-rule="evenodd" transform="matrix(-1 0 0 1 2863.5 885.5)"/><path d="M0 100.615C20.5625 65.0915 44.1992 31.4239 70.6364 0L168 81.4847C146.32 107.257 126.936 134.867 110.072 164Z" stroke="#A6A6A6" stroke-width="1.23786" stroke-linecap="round" stroke-linejoin="round" stroke-miterlimit="10" fill="none" fill-rule="evenodd" transform="matrix(-1 0 0 1 2811.5 785.5)"/><path d="M0 86.6789C26.4717 55.3181 55.6466 26.3154 87.1961 0L169 96.9165C143.129 118.497 119.203 142.282 97.4919 168Z" stroke="#A6A6A6" stroke-width="1.23786" stroke-linecap="round" stroke-linejoin="round" stroke-miterlimit="10" fill="none" fill-rule="evenodd" transform="matrix(-1 0 0 1 2741.5 698.5)"/><path d="M0 70.6364C31.4234 44.1992 65.0907 20.5646 100.616 0L164 110.072C134.867 126.936 107.258 146.32 81.4858 168Z" stroke="#A6A6A6" stroke-width="1.23786" stroke-linecap="round" stroke-linejoin="round" stroke-miterlimit="10" fill="none" fill-rule="evenodd" transform="matrix(-1 0 0 1 2654.5 627.5)"/><path d="M0 52.0072C35.5994 31.4595 72.9249 14.0568 111.552 0L155 119.35C123.322 130.877 92.7131 145.147 63.5169 162Z" stroke="#A6A6A6" stroke-width="1.23786" stroke-linecap="round" stroke-linejoin="round" stroke-miterlimit="10" fill="none" fill-rule="evenodd" transform="matrix(-1 0 0 1 2553.5 575.5)"/><path d="M0 31.809C38.6391 17.7731 78.4355 7.1278 118.932 0L141 124.916C107.787 130.76 75.1532 139.49 43.4633 151Z" stroke="#A6A6A6" stroke-width="1.23786" stroke-linecap="round" stroke-linejoin="round" stroke-miterlimit="10" fill="none" fill-rule="evenodd" transform="matrix(-1 0 0 1 2442.5 543.5)"/><path d="M0 10.6612C40.6071 3.56845 81.7637 0 123 0L123 126.257C89.183 126.257 55.4316 129.183 22.1267 135Z" stroke="#A6A6A6" stroke-width="1.23786" stroke-linecap="round" stroke-linejoin="round" stroke-miterlimit="10" fill="none" fill-rule="evenodd" transform="matrix(-1 0 0 1 2323.5 533.5)"/><path d="M0 0C40.8988 0 81.721 3.56594 122 10.6612L100.053 135C67.0214 129.183 33.542 126.257 0 126.255Z" stroke="#A6A6A6" stroke-width="1.23786" stroke-linecap="round" stroke-linejoin="round" stroke-miterlimit="10" fill="none" fill-rule="evenodd" transform="matrix(-1 0 0 1 2200.5 533.5)"/><path d="M22.0659 0C62.5614 7.12768 102.358 17.7703 141.001 31.8085L97.5365 151C65.8459 139.487 33.2112 130.758 0 124.911Z" stroke="#A6A6A6" stroke-width="1.23786" stroke-linecap="round" stroke-linejoin="round" stroke-miterlimit="10" fill="none" fill-rule="evenodd" transform="matrix(-1 0 0 1 2100.5 543.5)"/><path d="M43.4478 0C82.0728 14.0568 119.401 31.4573 155 52.0072L91.4833 162C62.2894 145.147 31.6787 130.877 0 119.348Z" stroke="#A6A6A6" stroke-width="1.23786" stroke-linecap="round" stroke-linejoin="round" stroke-miterlimit="10" fill="none" fill-rule="evenodd" transform="matrix(-1 0 0 1 2003.5 575.5)"/><path d="M63.3845 0C98.9072 20.5646 132.574 44.1992 164 70.6364L82.5141 168C56.7443 146.32 29.1353 126.936 0 110.072Z" stroke="#A6A6A6" stroke-width="1.23786" stroke-linecap="round" stroke-linejoin="round" stroke-miterlimit="10" fill="none" fill-rule="evenodd" transform="matrix(-1 0 0 1 1911.5 627.5)"/><path d="M104.431 0C121.251 29.0156 135.496 59.4414 147 90.9245L33.6882 132C24.5825 107.086 13.3102 83.0101 0 60.049Z" stroke="#A6A6A6" stroke-width="1.23786" stroke-linecap="round" stroke-linejoin="round" stroke-miterlimit="10" fill="none" fill-rule="evenodd" transform="matrix(-1 0 0 1 1804.5 949.5)"/><path d="M113.001 0C124.475 31.5491 133.176 64.0405 139.001 97.1034L20.5738 118C15.9633 91.8365 9.08069 66.1233 0 41.1589Z" stroke="#A6A6A6" stroke-width="1.23786" stroke-linecap="round" stroke-linejoin="round" stroke-miterlimit="10" fill="none" fill-rule="evenodd" transform="matrix(-1 0 0 1 1770.5 1040.5)"/><path d="M119.187 0C125.052 33.3453 128 67.1398 128 101L6.97385 101C6.97385 74.2042 4.6397 47.4621 0 21.0753Z" stroke="#A6A6A6" stroke-width="1.23786" stroke-linecap="round" stroke-linejoin="round" stroke-miterlimit="10" fill="none" fill-rule="evenodd" transform="matrix(-1 0 0 1 1750.5 1137.5)"/><path d="M128 0C128 33.5228 125.052 66.9853 119.187 100L0 79.1338C4.6397 53.0057 6.97385 26.5287 6.97385 0Z" stroke="#A6A6A6" stroke-width="1.23786" stroke-linecap="round" stroke-linejoin="round" stroke-miterlimit="10" fill="none" fill-rule="evenodd" transform="matrix(-1 0 0 1 1750.5 1238.5)"/><path d="M139.001 21.0761C133.176 54.4192 124.477 87.1857 113.001 119L0 77.4922C9.08069 52.3163 15.9658 26.3873 20.5738 0Z" stroke="#A6A6A6" stroke-width="1.23786" stroke-linecap="round" stroke-linejoin="round" stroke-miterlimit="10" fill="none" fill-rule="evenodd" transform="matrix(-1 0 0 1 1770.5 1317.5)"/><path d="M147 41.3867C135.496 73.1105 121.251 103.765 104.431 133L0 72.4961C13.3127 49.3611 24.5847 25.1026 33.6882 0Z" stroke="#A6A6A6" stroke-width="1.23786" stroke-linecap="round" stroke-linejoin="round" stroke-miterlimit="10" fill="none" fill-rule="evenodd" transform="matrix(-1 0 0 1 1804.5 1394.5)"/><path d="M151 60.3742C134.084 89.5486 114.644 117.195 92.8955 143L0 65.3849C17.2099 44.9653 32.5956 23.0852 45.9811 0Z" stroke="#A6A6A6" stroke-width="1.23786" stroke-linecap="round" stroke-linejoin="round" stroke-miterlimit="10" fill="none" fill-rule="evenodd" transform="matrix(-1 0 0 1 1850.5 1467.5)"/><path d="M149 77.6469C127.338 103.462 103.463 127.339 77.6478 149.001L0 56.4629C20.4282 39.3222 39.3227 20.4279 56.4636 0Z" stroke="#A6A6A6" stroke-width="1.23786" stroke-linecap="round" stroke-linejoin="round" stroke-miterlimit="10" fill="none" fill-rule="evenodd" transform="matrix(-1 0 0 1 1906.5 1532.5)"/><path d="M143 92.2824C117.193 113.885 89.5464 133.196 60.3742 150L0 45.6744C23.0852 32.3775 44.9653 17.0959 65.3849 0Z" stroke="#A6A6A6" stroke-width="1.23786" stroke-linecap="round" stroke-linejoin="round" stroke-miterlimit="10" fill="none" fill-rule="evenodd" transform="matrix(-1 0 0 1 1972.5 1589.5)"/><path d="M133 104.429C103.765 121.25 73.1105 135.495 41.3867 147L0 33.6878C25.1026 24.5844 49.3611 13.3126 72.4982 0Z" stroke="#A6A6A6" stroke-width="1.23786" stroke-linecap="round" stroke-linejoin="round" stroke-miterlimit="10" fill="none" fill-rule="evenodd" transform="matrix(-1 0 0 1 2044.5 1634.5)"/><path d="M118.001 113.814C86.4508 125.371 53.9607 134.132 20.8973 140L0 20.7214C26.164 16.0804 51.8757 9.14585 76.8407 0Z" stroke="#A6A6A6" stroke-width="1.23786" stroke-linecap="round" stroke-linejoin="round" stroke-miterlimit="10" fill="none" fill-rule="evenodd" transform="matrix(-1 0 0 1 2121.5 1668.5)"/><path d="M99.9997 118.258C66.9825 124.075 33.5227 127 0 127L0 6.91936C26.5286 6.91936 53.008 4.60597 79.1335 0Z" stroke="#A6A6A6" stroke-width="1.23786" stroke-linecap="round" stroke-linejoin="round" stroke-miterlimit="10" fill="none" fill-rule="evenodd" transform="matrix(-1 0 0 1 2200.5 1689.5)"/><path d="M101 127C67.1398 127 33.3431 124.075 0 118.258L21.0753 0C47.4621 4.60345 74.2064 6.91936 101 6.91936Z" stroke="#A6A6A6" stroke-width="1.23786" stroke-linecap="round" stroke-linejoin="round" stroke-miterlimit="10" fill="none" fill-rule="evenodd" transform="matrix(-1 0 0 1 2301.5 1689.5)"/><path d="M97.1034 140C64.038 134.132 31.5491 125.371 0 113.814L41.1589 0C66.1258 9.14585 91.8365 16.0804 118 20.7236Z" stroke="#A6A6A6" stroke-width="1.23786" stroke-linecap="round" stroke-linejoin="round" stroke-miterlimit="10" fill="none" fill-rule="evenodd" transform="matrix(-1 0 0 1 2398.5 1668.5)"/><path d="M91.6118 147C59.8886 135.495 29.2349 121.249 0 104.428L60.503 0C83.6376 13.3103 107.896 24.5826 133 33.6861Z" stroke="#A6A6A6" stroke-width="1.23786" stroke-linecap="round" stroke-linejoin="round" stroke-miterlimit="10" fill="none" fill-rule="evenodd" transform="matrix(-1 0 0 1 2490.5 1634.5)"/><path d="M82.6264 150C53.4537 133.196 25.8047 113.885 0 92.2824L77.6178 0C98.0375 17.0959 119.915 32.3797 143 45.6766Z" stroke="#A6A6A6" stroke-width="1.23786" stroke-linecap="round" stroke-linejoin="round" stroke-miterlimit="10" fill="none" fill-rule="evenodd" transform="matrix(-1 0 0 1 2572.5 1589.5)"/><path d="M70.8719 149.001C45.2301 127.337 21.5163 103.462 0 77.6469L91.914 0C108.94 20.4301 127.707 39.3222 148 56.4651Z" stroke="#A6A6A6" stroke-width="1.23786" stroke-linecap="round" stroke-linejoin="round" stroke-miterlimit="10" fill="none" fill-rule="evenodd" transform="matrix(-1 0 0 1 2643.5 1532.5)"/><path d="M57.7199 143C36.1179 117.193 16.8038 89.5486 0 60.3742L104.326 0C117.623 23.0878 132.904 44.9653 150 65.3849Z" stroke="#A6A6A6" stroke-width="1.23786" stroke-linecap="round" stroke-linejoin="round" stroke-miterlimit="10" fill="none" fill-rule="evenodd" transform="matrix(-1 0 0 1 2701.5 1467.5)"/><path d="M42.5697 133C25.749 103.765 11.5038 73.1105 0 41.3867L113.312 0C122.418 25.1051 133.688 49.3636 147 72.4982Z" stroke="#A6A6A6" stroke-width="1.23786" stroke-linecap="round" stroke-linejoin="round" stroke-miterlimit="10" fill="none" fill-rule="evenodd" transform="matrix(-1 0 0 1 2744.5 1394.5)"/><path d="M26.1868 119C14.6299 87.1832 5.86665 54.4178 0 21.0744L119.279 0C123.922 26.3857 130.854 52.3152 140 77.4917Z" stroke="#A6A6A6" stroke-width="1.23786" stroke-linecap="round" stroke-linejoin="round" stroke-miterlimit="10" fill="none" fill-rule="evenodd" transform="matrix(-1 0 0 1 2770.5 1317.5)"/><path d="M8.81094 100C2.94868 66.9853-0.00253323 33.5228 0 0L121.028 0C121.026 26.5287 123.36 53.0082 128 79.1338Z" stroke="#A6A6A6" stroke-width="1.23786" stroke-linecap="round" stroke-linejoin="round" stroke-miterlimit="10" fill="none" fill-rule="evenodd" transform="matrix(-1 0 0 1 2779.5 1238.5)"/><path d="M0 101C0 67.1398 2.94651 33.3453 8.81094 0L128 21.0753C123.36 47.4621 121.026 74.2064 121.028 101Z" stroke="#A6A6A6" stroke-width="1.23786" stroke-linecap="round" stroke-linejoin="round" stroke-miterlimit="10" fill="none" fill-rule="evenodd" transform="matrix(-1 0 0 1 2779.5 1137.5)"/><path d="M0 97.1034C5.86665 64.038 14.6277 31.5491 26.1868 0L140 41.161C130.854 66.1258 123.92 91.8365 119.279 118Z" stroke="#A6A6A6" stroke-width="1.23786" stroke-linecap="round" stroke-linejoin="round" stroke-miterlimit="10" fill="none" fill-rule="evenodd" transform="matrix(-1 0 0 1 2770.5 1040.5)"/><path d="M0 90.923C11.506 59.4383 25.749 29.0151 42.5697 0L147 60.0481C133.69 83.0109 122.418 107.084 113.312 132Z" stroke="#A6A6A6" stroke-width="1.23786" stroke-linecap="round" stroke-linejoin="round" stroke-miterlimit="10" fill="none" fill-rule="evenodd" transform="matrix(-1 0 0 1 2744.5 949.5)"/><path d="M0 82.6238C16.8038 53.4512 36.1179 25.8047 57.7199 0L150 77.6153C132.904 98.035 117.623 119.913 104.326 143Z" stroke="#A6A6A6" stroke-width="1.23786" stroke-linecap="round" stroke-linejoin="round" stroke-miterlimit="10" fill="none" fill-rule="evenodd" transform="matrix(-1 0 0 1 2701.5 866.5)"/><path d="M0 71.3535C21.5167 45.5358 45.2309 21.6617 70.8731 0L148 92.5352C127.709 109.678 108.941 128.57 91.9155 149Z" stroke="#A6A6A6" stroke-width="1.23786" stroke-linecap="round" stroke-linejoin="round" stroke-miterlimit="10" fill="none" fill-rule="evenodd" transform="matrix(-1 0 0 1 2643.5 795.5)"/><path d="M0 57.7192C25.8073 36.1174 53.4537 16.8036 82.6264 0L143 104.325C119.915 117.621 98.0375 132.903 77.6153 150.001Z" stroke="#A6A6A6" stroke-width="1.23786" stroke-linecap="round" stroke-linejoin="round" stroke-miterlimit="10" fill="none" fill-rule="evenodd" transform="matrix(-1 0 0 1 2572.5 737.5)"/><path d="M0 42.8593C29.2376 25.9264 59.8896 11.5821 91.6133 0L133 114.083C107.897 123.25 83.639 134.599 60.504 148Z" stroke="#A6A6A6" stroke-width="1.23786" stroke-linecap="round" stroke-linejoin="round" stroke-miterlimit="10" fill="none" fill-rule="evenodd" transform="matrix(-1 0 0 1 2490.5 694.5)"/><path d="M0 26.1863C31.5491 14.6296 64.0405 5.86654 97.1034 0L118 119.277C91.8344 123.92 66.1233 130.852 41.1589 140Z" stroke="#A6A6A6" stroke-width="1.23786" stroke-linecap="round" stroke-linejoin="round" stroke-miterlimit="10" fill="none" fill-rule="evenodd" transform="matrix(-1 0 0 1 2398.5 668.5)"/><path d="M0 8.81092C33.3453 2.94867 67.1398-0.00253322 101 0L101 121.028C74.2042 121.028 47.4621 123.36 21.0727 128Z" stroke="#A6A6A6" stroke-width="1.23786" stroke-linecap="round" stroke-linejoin="round" stroke-miterlimit="10" fill="none" fill-rule="evenodd" transform="matrix(-1 0 0 1 2301.5 659.5)"/><path d="M0.00215585 0C33.5267 0 66.9858 2.9465 100 8.81092L79.1318 128C53.0069 123.36 26.5302 121.026 0 121.028Z" stroke="#A6A6A6" stroke-width="1.23786" stroke-linecap="round" stroke-linejoin="round" stroke-miterlimit="10" fill="none" fill-rule="evenodd" transform="matrix(-1 0 0 1 2200.5 659.5)"/><path d="M20.899 0C53.962 5.86881 86.4533 14.6298 118 26.1867L76.8413 140C51.8768 130.856 26.1635 123.922 0 119.279Z" stroke="#A6A6A6" stroke-width="1.23786" stroke-linecap="round" stroke-linejoin="round" stroke-miterlimit="10" fill="none" fill-rule="evenodd" transform="matrix(-1 0 0 1 2121.5 668.5)"/><path d="M41.3867 0C73.1105 11.5843 103.765 25.9242 133 42.8593L72.4961 148C49.3611 134.599 25.1026 123.25 0 114.083Z" stroke="#A6A6A6" stroke-width="1.23786" stroke-linecap="round" stroke-linejoin="round" stroke-miterlimit="10" fill="none" fill-rule="evenodd" transform="matrix(-1 0 0 1 2044.5 694.5)"/><path d="M60.3742 0C89.5486 16.8064 117.195 36.118 143 57.7201L65.3849 150C44.9628 132.907 23.0852 117.623 0 104.326Z" stroke="#A6A6A6" stroke-width="1.23786" stroke-linecap="round" stroke-linejoin="round" stroke-miterlimit="10" fill="none" fill-rule="evenodd" transform="matrix(-1 0 0 1 1972.5 737.5)"/><path d="M77.649 0C103.464 21.6639 127.341 45.5358 149 71.3535L56.4648 149C39.3246 128.57 20.43 109.676 0 92.5352Z" stroke="#A6A6A6" stroke-width="1.23786" stroke-linecap="round" stroke-linejoin="round" stroke-miterlimit="10" fill="none" fill-rule="evenodd" transform="matrix(-1 0 0 1 1906.5 795.5)"/><path d="M92.4797 0C101.537 25.2361 108.402 51.224 113 77.6695L16.0807 95.0006C12.477 74.2771 7.09765 53.9119 0 34.1363Z" stroke="#A6A6A6" stroke-width="1.23786" stroke-linecap="round" stroke-linejoin="round" stroke-miterlimit="10" fill="none" fill-rule="evenodd" transform="matrix(-1 0 0 1 1863.5 1081.5)"/><path d="M97.0774 0C101.683 26.4117 104 53.179 104 80.0005L5.42548 80.0005C5.42548 58.9831 3.6092 38.006 0 17.3086Z" stroke="#A6A6A6" stroke-width="1.23786" stroke-linecap="round" stroke-linejoin="round" stroke-miterlimit="10" fill="none" fill-rule="evenodd" transform="matrix(-1 0 0 1 1847.5 1158.5)"/><path d="M104 0C104 26.484 101.683 52.9164 97.0774 79.0004L0 61.9078C3.6092 41.4674 5.42548 20.7547 5.42548 0Z" stroke="#A6A6A6" stroke-width="1.23786" stroke-linecap="round" stroke-linejoin="round" stroke-miterlimit="10" fill="none" fill-rule="evenodd" transform="matrix(-1 0 0 1 1847.5 1238.5)"/><path d="M113 17.1491C108.402 43.3167 101.537 69.0317 92.4797 94.0002L0 60.2229C7.09765 40.6571 12.477 20.5058 16.0807 0Z" stroke="#A6A6A6" stroke-width="1.23786" stroke-linecap="round" stroke-linejoin="round" stroke-miterlimit="10" fill="none" fill-rule="evenodd" transform="matrix(-1 0 0 1 1863.5 1300.5)"/><path d="M120 33.814C110.846 58.8093 99.5173 82.9641 86.1345 106L0 56.5698C10.4856 38.5171 19.3645 19.5889 26.5376 0Z" stroke="#A6A6A6" stroke-width="1.23786" stroke-linecap="round" stroke-linejoin="round" stroke-miterlimit="10" fill="none" fill-rule="evenodd" transform="matrix(-1 0 0 1 1890.5 1361.5)"/><path d="M122 49.5701C108.636 72.6713 93.2782 94.5661 76.0965 115L0 51.2725C13.4646 35.2582 25.4999 18.1033 35.9729 0Z" stroke="#A6A6A6" stroke-width="1.23786" stroke-linecap="round" stroke-linejoin="round" stroke-miterlimit="10" fill="none" fill-rule="evenodd" transform="matrix(-1 0 0 1 1926.5 1417.5)"/><path d="M120 64.1483C102.884 84.7167 84.0165 103.742 63.6182 121L0 44.5507C15.9847 31.0262 30.7698 16.1179 44.1825 0Z" stroke="#A6A6A6" stroke-width="1.23786" stroke-linecap="round" stroke-linejoin="round" stroke-miterlimit="10" fill="none" fill-rule="evenodd" transform="matrix(-1 0 0 1 1970.5 1468.5)"/><path d="M115 75.4728C94.5664 92.5136 72.6715 107.746 49.5702 121L0 35.678C18.1034 25.2909 35.2584 13.3542 51.2727 0Z" stroke="#A6A6A6" stroke-width="1.23786" stroke-linecap="round" stroke-linejoin="round" stroke-miterlimit="10" fill="none" fill-rule="evenodd" transform="matrix(-1 0 0 1 2021.5 1513.5)"/><path d="M106 85.4167C82.9644 98.6854 58.8095 109.925 33.8141 119L0 26.3164C19.589 19.2031 38.5151 10.3983 56.57 0Z" stroke="#A6A6A6" stroke-width="1.23786" stroke-linecap="round" stroke-linejoin="round" stroke-miterlimit="10" fill="none" fill-rule="evenodd" transform="matrix(-1 0 0 1 2078.5 1549.5)"/><path d="M94.0002 93.2981C69.032 102.436 43.3177 109.364 17.1508 114L0 16.223C20.5074 12.5874 40.656 7.16047 60.2234 0Z" stroke="#A6A6A6" stroke-width="1.23786" stroke-linecap="round" stroke-linejoin="round" stroke-miterlimit="10" fill="none" fill-rule="evenodd" transform="matrix(-1 0 0 1 2138.5 1575.5)"/><path d="M79.0001 98.0105C52.9161 102.661 26.4839 105 0 105L0 5.47763C20.7521 5.47763 41.4672 3.6439 61.9054 0Z" stroke="#A6A6A6" stroke-width="1.23786" stroke-linecap="round" stroke-linejoin="round" stroke-miterlimit="10" fill="none" fill-rule="evenodd" transform="matrix(-1 0 0 1 2200.5 1591.5)"/><path d="M80.0005 105C53.179 105 26.4117 102.661 0 98.0105L17.3086 0C38.006 3.6439 58.9831 5.47763 80.0005 5.47763Z" stroke="#A6A6A6" stroke-width="1.23786" stroke-linecap="round" stroke-linejoin="round" stroke-miterlimit="10" fill="none" fill-rule="evenodd" transform="matrix(-1 0 0 1 2280.5 1591.5)"/><path d="M76.8516 114C50.6846 109.361 24.9704 102.436 0 93.2981L33.7768 0C53.3417 7.16047 73.4924 12.5874 94.0002 16.223Z" stroke="#A6A6A6" stroke-width="1.23786" stroke-linecap="round" stroke-linejoin="round" stroke-miterlimit="10" fill="none" fill-rule="evenodd" transform="matrix(-1 0 0 1 2357.5 1575.5)"/><path d="M72.1865 119C47.1911 109.923 23.0362 98.688 0 85.4167L49.4328 0C67.483 10.3983 86.4112 19.2031 106 26.3164Z" stroke="#A6A6A6" stroke-width="1.23786" stroke-linecap="round" stroke-linejoin="round" stroke-miterlimit="10" fill="none" fill-rule="evenodd" transform="matrix(-1 0 0 1 2429.5 1549.5)"/><path d="M65.4287 121C42.3279 107.746 20.4356 92.5136 0 75.4728L63.7284 0C79.7403 13.3542 96.895 25.2909 115.001 35.678Z" stroke="#A6A6A6" stroke-width="1.23786" stroke-linecap="round" stroke-linejoin="round" stroke-miterlimit="10" fill="none" fill-rule="evenodd" transform="matrix(-1 0 0 1 2495.5 1513.5)"/><path d="M56.3811 121C35.9828 103.742 17.1159 84.7192 0 64.1483L75.8161 0C89.2289 16.1179 104.014 31.0262 120 44.5507Z" stroke="#A6A6A6" stroke-width="1.23786" stroke-linecap="round" stroke-linejoin="round" stroke-miterlimit="10" fill="none" fill-rule="evenodd" transform="matrix(-1 0 0 1 2551.5 1468.5)"/><path d="M45.9036 115C28.7244 94.5639 13.3636 72.6734 0 49.5701L86.0274 0C96.5 18.1033 108.536 35.2582 122 51.2725Z" stroke="#A6A6A6" stroke-width="1.23786" stroke-linecap="round" stroke-linejoin="round" stroke-miterlimit="10" fill="none" fill-rule="evenodd" transform="matrix(-1 0 0 1 2597.5 1417.5)"/><path d="M33.5832 106C20.3145 82.9641 9.07731 58.8115 0 33.814L92.6839 0C99.7968 19.5889 108.602 38.5149 119 56.5698Z" stroke="#A6A6A6" stroke-width="1.23786" stroke-linecap="round" stroke-linejoin="round" stroke-miterlimit="10" fill="none" fill-rule="evenodd" transform="matrix(-1 0 0 1 2630.5 1361.5)"/><path d="M20.7023 94.0006C11.5671 69.0323 4.63891 43.3179 0 17.1508L97.7772 0C101.412 20.5075 106.84 40.6562 114 60.2236Z" stroke="#A6A6A6" stroke-width="1.23786" stroke-linecap="round" stroke-linejoin="round" stroke-miterlimit="10" fill="none" fill-rule="evenodd" transform="matrix(-1 0 0 1 2651.5 1300.5)"/><path d="M6.92075 79.0004C2.31458 52.9164-0.00251468 26.484 0 0L98.5767 0C98.5767 20.7522 100.391 41.4674 104 61.9057Z" stroke="#A6A6A6" stroke-width="1.23786" stroke-linecap="round" stroke-linejoin="round" stroke-miterlimit="10" fill="none" fill-rule="evenodd" transform="matrix(-1 0 0 1 2658.5 1238.5)"/><path d="M0 80.0005C0.00251462 53.179 2.31705 26.4117 6.92276 0L104.001 17.3086C100.391 38.006 98.5772 58.9831 98.5772 80.0005Z" stroke="#A6A6A6" stroke-width="1.23786" stroke-linecap="round" stroke-linejoin="round" stroke-miterlimit="10" fill="none" fill-rule="evenodd" transform="matrix(-1 0 0 1 2658.5 1158.5)"/><path d="M0 77.6695C4.63891 51.224 11.5649 25.2361 20.7023 0L114 34.1363C106.84 53.9093 101.412 74.2746 97.7772 95.0006Z" stroke="#A6A6A6" stroke-width="1.23786" stroke-linecap="round" stroke-linejoin="round" stroke-miterlimit="10" fill="none" fill-rule="evenodd" transform="matrix(-1 0 0 1 2651.5 1081.5)"/><path d="M0 72.1863C9.07731 47.1909 20.3145 23.0383 33.5832 0L119 49.4326C108.602 67.4828 99.7968 86.4109 92.6839 106Z" stroke="#A6A6A6" stroke-width="1.23786" stroke-linecap="round" stroke-linejoin="round" stroke-miterlimit="10" fill="none" fill-rule="evenodd" transform="matrix(-1 0 0 1 2630.5 1009.5)"/><path d="M0 65.4285C13.3636 42.3277 28.7219 20.4355 45.9036 0L122 63.7282C108.538 79.7401 96.5 96.8947 86.0274 115Z" stroke="#A6A6A6" stroke-width="1.23786" stroke-linecap="round" stroke-linejoin="round" stroke-miterlimit="10" fill="none" fill-rule="evenodd" transform="matrix(-1 0 0 1 2597.5 944.5)"/><path d="M0 56.381C17.1184 35.9827 35.9828 17.1183 56.3811 0L120 75.8159C104.014 89.2287 89.2311 104.013 75.8161 120Z" stroke="#A6A6A6" stroke-width="1.23786" stroke-linecap="round" stroke-linejoin="round" stroke-miterlimit="10" fill="none" fill-rule="evenodd" transform="matrix(-1 0 0 1 2551.5 887.5)"/><path d="M0 45.5274C20.4356 28.489 42.3279 13.2541 65.4287 0L115.001 85.3223C96.8971 95.709 79.7403 107.646 63.7284 121Z" stroke="#A6A6A6" stroke-width="1.23786" stroke-linecap="round" stroke-linejoin="round" stroke-miterlimit="10" fill="none" fill-rule="evenodd" transform="matrix(-1 0 0 1 2495.5 842.5)"/><path d="M0 33.5832C23.0384 20.3145 47.1911 9.07731 72.1865 0L106 92.6839C86.4134 99.7968 67.4855 108.602 49.4328 119Z" stroke="#A6A6A6" stroke-width="1.23786" stroke-linecap="round" stroke-linejoin="round" stroke-miterlimit="10" fill="none" fill-rule="evenodd" transform="matrix(-1 0 0 1 2429.5 808.5)"/><path d="M0 20.7024C24.9704 11.5671 50.6825 4.63893 76.8516 0L94.0002 97.7775C73.4949 101.413 53.3442 106.84 33.7768 114Z" stroke="#A6A6A6" stroke-width="1.23786" stroke-linecap="round" stroke-linejoin="round" stroke-miterlimit="10" fill="none" fill-rule="evenodd" transform="matrix(-1 0 0 1 2357.5 787.5)"/><path d="M0 6.98727C26.4117 2.33683 53.179 0 80.0005 0L80.0005 99.5243C58.9831 99.5221 38.006 101.356 17.3086 105Z" stroke="#A6A6A6" stroke-width="1.23786" stroke-linecap="round" stroke-linejoin="round" stroke-miterlimit="10" fill="none" fill-rule="evenodd" transform="matrix(-1 0 0 1 2280.5 780.5)"/><path d="M0 0C26.4839 0 52.9161 2.33683 79.0001 6.98727L61.9075 105C41.4672 101.356 20.7546 99.5243 0 99.5243Z" stroke="#A6A6A6" stroke-width="1.23786" stroke-linecap="round" stroke-linejoin="round" stroke-miterlimit="10" fill="none" fill-rule="evenodd" transform="matrix(-1 0 0 1 2200.5 780.5)"/><path d="M17.149 0C43.3166 4.63893 69.0314 11.5671 93.9998 20.7024L60.2226 114C40.657 106.84 20.5057 101.413 0 97.7775Z" stroke="#A6A6A6" stroke-width="1.23786" stroke-linecap="round" stroke-linejoin="round" stroke-miterlimit="10" fill="none" fill-rule="evenodd" transform="matrix(-1 0 0 1 2138.5 787.5)"/><path d="M33.8141 0C58.8095 9.07714 82.9644 20.3141 106 33.5826L56.57 119C38.5172 108.6 19.589 99.795 0 92.6822Z" stroke="#A6A6A6" stroke-width="1.23786" stroke-linecap="round" stroke-linejoin="round" stroke-miterlimit="10" fill="none" fill-rule="evenodd" transform="matrix(-1 0 0 1 2078.5 808.5)"/><path d="M49.5702 0C72.6737 13.2541 94.5642 28.489 115 45.5274L51.2727 121C35.2584 107.648 18.1034 95.709 0 85.3223Z" stroke="#A6A6A6" stroke-width="1.23786" stroke-linecap="round" stroke-linejoin="round" stroke-miterlimit="10" fill="none" fill-rule="evenodd" transform="matrix(-1 0 0 1 2021.5 842.5)"/><path d="M63.6182 0C84.0165 17.1183 102.884 35.9827 120 56.381L44.1825 120C30.7698 104.013 15.9869 89.2287 0 75.8159Z" stroke="#A6A6A6" stroke-width="1.23786" stroke-linecap="round" stroke-linejoin="round" stroke-miterlimit="10" fill="none" fill-rule="evenodd" transform="matrix(-1 0 0 1 1970.5 887.5)"/><path d="M76.0965 0C93.2782 20.4355 108.636 42.3277 122 65.4285L35.9729 115C25.4999 96.8968 13.4646 79.7401 0 63.7282Z" stroke="#A6A6A6" stroke-width="1.23786" stroke-linecap="round" stroke-linejoin="round" stroke-miterlimit="10" fill="none" fill-rule="evenodd" transform="matrix(-1 0 0 1 1926.5 944.5)"/><path d="M83.5654 0C87.1807 20.4687 89 41.2122 89 61.9977L4.14243 61.9999C4.14243 46.1468 2.75706 30.3235 0 14.7121Z" stroke="#A6A6A6" stroke-width="1.23786" stroke-linecap="round" stroke-linejoin="round" stroke-miterlimit="10" fill="none" fill-rule="evenodd" transform="matrix(-1 0 0 1 1931.5 1176.5)"/><path d="M89 0C89 20.7837 87.1807 41.5305 83.5654 61.9999L0 47.2894C2.75706 31.6775 4.14243 15.854 4.14243 0Z" stroke="#A6A6A6" stroke-width="1.23786" stroke-linecap="round" stroke-linejoin="round" stroke-miterlimit="10" fill="none" fill-rule="evenodd" transform="matrix(-1 0 0 1 1931.5 1238.5)"/><path d="M96.0003 14.943C92.3823 35.7306 86.9754 56.161 79.8447 76L0 46.5701C5.4372 31.4403 9.56176 15.8585 12.3225 0Z" stroke="#A6A6A6" stroke-width="1.23786" stroke-linecap="round" stroke-linejoin="round" stroke-miterlimit="10" fill="none" fill-rule="evenodd" transform="matrix(-1 0 0 1 1943.5 1285.5)"/><path d="M100 29.1846C92.8672 48.8597 84.0382 67.8689 73.6106 86.0007L0 43.3358C7.95316 29.5059 14.6866 15.0052 20.1282 0Z" stroke="#A6A6A6" stroke-width="1.23786" stroke-linecap="round" stroke-linejoin="round" stroke-miterlimit="10" fill="none" fill-rule="evenodd" transform="matrix(-1 0 0 1 1963.5 1331.5)"/><path d="M101 42.2054C90.565 60.1409 78.5732 77.1368 65.1596 93.0005L0 38.7436C10.2291 26.6434 19.3778 13.6802 27.3367 0Z" stroke="#A6A6A6" stroke-width="1.23786" stroke-linecap="round" stroke-linejoin="round" stroke-miterlimit="10" fill="none" fill-rule="evenodd" transform="matrix(-1 0 0 1 1991.5 1375.5)"/><path d="M99.0004 54.7533C85.5677 70.761 70.7635 85.5655 54.7533 99.0004L0 33.7485C12.2103 23.505 23.5028 12.2103 33.7485 0Z" stroke="#A6A6A6" stroke-width="1.23786" stroke-linecap="round" stroke-linejoin="round" stroke-miterlimit="10" fill="none" fill-rule="evenodd" transform="matrix(-1 0 0 1 2025.5 1414.5)"/><path d="M94.0006 65.8024C77.9642 79.3515 60.786 91.4621 42.6581 102L0 27.6074C13.8244 19.5698 26.9292 10.3304 39.1592 0Z" stroke="#A6A6A6" stroke-width="1.23786" stroke-linecap="round" stroke-linejoin="round" stroke-miterlimit="10" fill="none" fill-rule="evenodd" transform="matrix(-1 0 0 1 2064.5 1447.5)"/><path d="M85.9999 73.6106C67.8688 84.0382 48.858 92.8672 29.1858 100L0 20.1282C15.0047 14.6866 29.5049 7.95316 43.3318 0Z" stroke="#A6A6A6" stroke-width="1.23786" stroke-linecap="round" stroke-linejoin="round" stroke-miterlimit="10" fill="none" fill-rule="evenodd" transform="matrix(-1 0 0 1 2107.5 1475.5)"/><path d="M74.9999 79.8447C55.4242 86.9754 35.263 92.3798 14.7463 96.0003L0 12.3225C15.6473 9.56176 31.0266 5.4372 45.9573 0Z" stroke="#A6A6A6" stroke-width="1.23786" stroke-linecap="round" stroke-linejoin="round" stroke-miterlimit="10" fill="none" fill-rule="evenodd" transform="matrix(-1 0 0 1 2153.5 1495.5)"/><path d="M61.9999 84.5044C41.5312 88.1628 20.7855 90.0001 0 90.0001L0 4.19116C15.8509 4.18898 31.6742 2.78804 47.2877 0Z" stroke="#A6A6A6" stroke-width="1.23786" stroke-linecap="round" stroke-linejoin="round" stroke-miterlimit="10" fill="none" fill-rule="evenodd" transform="matrix(-1 0 0 1 2200.5 1507.5)"/><path d="M63.0003 90.0001C41.8797 90.0001 20.8015 88.1628 0 84.5044L14.9473 0C30.8106 2.78804 46.8914 4.18898 62.9981 4.18898Z" stroke="#A6A6A6" stroke-width="1.23786" stroke-linecap="round" stroke-linejoin="round" stroke-miterlimit="10" fill="none" fill-rule="evenodd" transform="matrix(-1 0 0 1 2263.5 1507.5)"/><path d="M60.2553 96.0003C39.7385 92.3802 19.5763 86.9734 0 79.8429L29.0413 0C43.9724 5.43708 59.3519 9.56155 74.9999 12.3222Z" stroke="#A6A6A6" stroke-width="1.23786" stroke-linecap="round" stroke-linejoin="round" stroke-miterlimit="10" fill="none" fill-rule="evenodd" transform="matrix(-1 0 0 1 2323.5 1495.5)"/><path d="M56.8141 100C37.1419 92.8694 18.1311 84.0382 0 73.6106L42.6656 0C56.4928 7.95316 70.9931 14.6866 85.9999 20.1282Z" stroke="#A6A6A6" stroke-width="1.23786" stroke-linecap="round" stroke-linejoin="round" stroke-miterlimit="10" fill="none" fill-rule="evenodd" transform="matrix(-1 0 0 1 2380.5 1475.5)"/><path d="M51.3419 102C33.2141 91.4646 16.036 79.3515 0 65.805L54.8412 0C67.0686 10.3304 80.1733 19.5698 94.0002 27.6074Z" stroke="#A6A6A6" stroke-width="1.23786" stroke-linecap="round" stroke-linejoin="round" stroke-miterlimit="10" fill="none" fill-rule="evenodd" transform="matrix(-1 0 0 1 2431.5 1447.5)"/><path d="M44.2481 99.0004C28.2375 85.5677 13.4326 70.7635 0 54.7533L65.2507 0C75.497 12.2103 86.7898 23.5028 99.0004 33.7485Z" stroke="#A6A6A6" stroke-width="1.23786" stroke-linecap="round" stroke-linejoin="round" stroke-miterlimit="10" fill="none" fill-rule="evenodd" transform="matrix(-1 0 0 1 2475.5 1414.5)"/><path d="M35.8403 93.0005C22.4269 77.1372 10.4347 60.1393 0 42.2042L73.6633 0C81.6222 13.6773 90.7688 26.6427 101 38.7426Z" stroke="#A6A6A6" stroke-width="1.23786" stroke-linecap="round" stroke-linejoin="round" stroke-miterlimit="10" fill="none" fill-rule="evenodd" transform="matrix(-1 0 0 1 2511.5 1375.5)"/><path d="M26.3873 86.0003C15.96 67.8691 7.13063 48.8582 0 29.1859L79.8722 0C85.3113 15.0047 92.0472 29.5051 100 43.332Z" stroke="#A6A6A6" stroke-width="1.23786" stroke-linecap="round" stroke-linejoin="round" stroke-miterlimit="10" fill="none" fill-rule="evenodd" transform="matrix(-1 0 0 1 2537.5 1331.5)"/><path d="M16.3231 76C9.11869 56.1626 3.65774 35.7316 0 14.9412L84.5493 0C87.3388 15.8567 91.504 31.4391 97.0003 46.5693Z" stroke="#A6A6A6" stroke-width="1.23786" stroke-linecap="round" stroke-linejoin="round" stroke-miterlimit="10" fill="none" fill-rule="evenodd" transform="matrix(-1 0 0 1 2554.5 1285.5)"/><path d="M5.43244 61.9999C1.81681 41.5312 0 20.7855 0 0L84.8554 0C84.8554 15.8509 86.2433 31.6764 89 47.2877Z" stroke="#A6A6A6" stroke-width="1.23786" stroke-linecap="round" stroke-linejoin="round" stroke-miterlimit="10" fill="none" fill-rule="evenodd" transform="matrix(-1 0 0 1 2559.5 1238.5)"/><path d="M0 62.0002C-0.00251892 41.2139 1.81686 20.4695 5.4326 0L89.0004 14.7106C86.2458 30.3225 84.8578 46.1461 84.8578 62.0002Z" stroke="#A6A6A6" stroke-width="1.23786" stroke-linecap="round" stroke-linejoin="round" stroke-miterlimit="10" fill="none" fill-rule="evenodd" transform="matrix(-1 0 0 1 2559.5 1176.5)"/><path d="M0 60.2553C3.65783 39.7385 9.1189 19.5763 16.3235 0L96.9999 29.0413C91.5061 43.9724 87.3408 59.3519 84.5512 74.9999Z" stroke="#A6A6A6" stroke-width="1.23786" stroke-linecap="round" stroke-linejoin="round" stroke-miterlimit="10" fill="none" fill-rule="evenodd" transform="matrix(-1 0 0 1 2554.5 1115.5)"/><path d="M0 56.1535C7.13315 36.71 15.9622 17.9203 26.3898 0L100 42.1695C92.0494 55.8381 85.3138 70.1697 79.8744 84.9999Z" stroke="#A6A6A6" stroke-width="1.23786" stroke-linecap="round" stroke-linejoin="round" stroke-miterlimit="10" fill="none" fill-rule="evenodd" transform="matrix(-1 0 0 1 2537.5 1059.5)"/><path d="M0 51.3419C10.4345 33.2141 22.4264 16.036 35.842 0L101 54.8412C90.769 67.0707 81.6229 80.1733 73.6643 94.0002Z" stroke="#A6A6A6" stroke-width="1.23786" stroke-linecap="round" stroke-linejoin="round" stroke-miterlimit="10" fill="none" fill-rule="evenodd" transform="matrix(-1 0 0 1 2511.5 1007.5)"/><path d="M0 44.2481C13.4323 28.2375 28.2367 13.4326 44.2469 0L99 65.2532C86.7897 75.497 75.4973 86.7898 65.2516 99.0004Z" stroke="#A6A6A6" stroke-width="1.23786" stroke-linecap="round" stroke-linejoin="round" stroke-miterlimit="10" fill="none" fill-rule="evenodd" transform="matrix(-1 0 0 1 2475.5 963.5)"/><path d="M0 35.8403C16.0342 22.4269 33.2127 10.4347 51.341 0L93.9998 73.6633C80.1752 81.6222 67.0723 90.7688 54.8424 101Z" stroke="#A6A6A6" stroke-width="1.23786" stroke-linecap="round" stroke-linejoin="round" stroke-miterlimit="10" fill="none" fill-rule="evenodd" transform="matrix(-1 0 0 1 2431.5 927.5)"/><path d="M0 26.3897C18.1295 15.96 37.1408 7.13313 56.8158 0L86.0003 79.8719C70.9973 85.311 56.4967 92.0469 42.6669 100Z" stroke="#A6A6A6" stroke-width="1.23786" stroke-linecap="round" stroke-linejoin="round" stroke-miterlimit="10" fill="none" fill-rule="evenodd" transform="matrix(-1 0 0 1 2380.5 901.5)"/><path d="M0 16.1549C19.5757 9.02468 39.7373 3.62003 60.2557 0L74.9999 83.6777C59.3527 86.4384 43.9737 90.5632 29.0426 96.0003Z" stroke="#A6A6A6" stroke-width="1.23786" stroke-linecap="round" stroke-linejoin="round" stroke-miterlimit="10" fill="none" fill-rule="evenodd" transform="matrix(-1 0 0 1 2323.5 885.5)"/><path d="M0 5.43242C20.7997 1.8168 41.8786 0 63.0003 0L63.0003 84.8551C46.893 84.8551 30.8138 86.243 14.9501 88.9997Z" stroke="#A6A6A6" stroke-width="1.23786" stroke-linecap="round" stroke-linejoin="round" stroke-miterlimit="10" fill="none" fill-rule="evenodd" transform="matrix(-1 0 0 1 2263.5 879.5)"/><path d="M0 0C20.7837-0.00251884 41.5305 1.8168 61.9999 5.43242L47.2872 88.9997C31.6775 86.243 15.854 84.8551 0 84.8551Z" stroke="#A6A6A6" stroke-width="1.23786" stroke-linecap="round" stroke-linejoin="round" stroke-miterlimit="10" fill="none" fill-rule="evenodd" transform="matrix(-1 0 0 1 2200.5 879.5)"/><path d="M14.7442 0C35.2605 3.62003 55.422 9.02468 74.9999 16.1574L45.9573 96.0003C31.0266 90.5632 15.6498 86.4384 0 83.6777Z" stroke="#A6A6A6" stroke-width="1.23786" stroke-linecap="round" stroke-linejoin="round" stroke-miterlimit="10" fill="none" fill-rule="evenodd" transform="matrix(-1 0 0 1 2153.5 885.5)"/><path d="M29.1845 0C48.8595 7.13295 67.8687 15.9617 86.0003 26.3912L43.3331 99.9997C29.5058 92.0467 15.0051 85.3135 0 79.8721Z" stroke="#A6A6A6" stroke-width="1.23786" stroke-linecap="round" stroke-linejoin="round" stroke-miterlimit="10" fill="none" fill-rule="evenodd" transform="matrix(-1 0 0 1 2107.5 901.5)"/><path d="M42.6592 0C60.7876 10.4325 77.9663 22.4244 94.0006 35.8403L39.1577 101C26.9299 90.771 13.8248 81.6222 0 73.6633Z" stroke="#A6A6A6" stroke-width="1.23786" stroke-linecap="round" stroke-linejoin="round" stroke-miterlimit="10" fill="none" fill-rule="evenodd" transform="matrix(-1 0 0 1 2064.5 927.5)"/><path d="M54.7533 0C70.761 13.4323 85.5655 28.2393 99.0004 44.2495L33.7485 99C23.5028 86.7922 12.2103 75.4998 0 65.2537Z" stroke="#A6A6A6" stroke-width="1.23786" stroke-linecap="round" stroke-linejoin="round" stroke-miterlimit="10" fill="none" fill-rule="evenodd" transform="matrix(-1 0 0 1 2025.5 963.5)"/><path d="M65.1582 0C78.5737 16.0338 90.5653 33.2119 101 51.3419L27.3361 94.0002C19.3774 80.1733 10.231 67.0707 0 54.8412Z" stroke="#A6A6A6" stroke-width="1.23786" stroke-linecap="round" stroke-linejoin="round" stroke-miterlimit="10" fill="none" fill-rule="evenodd" transform="matrix(-1 0 0 1 1991.5 1007.5)"/><path d="M73.6106 0C84.0382 17.9187 92.8672 36.7089 100 56.1551L20.1257 85.0003C14.6866 70.1718 7.95064 55.8397 0 42.1707Z" stroke="#A6A6A6" stroke-width="1.23786" stroke-linecap="round" stroke-linejoin="round" stroke-miterlimit="10" fill="none" fill-rule="evenodd" transform="matrix(-1 0 0 1 1963.5 1059.5)"/><path d="M76.0003 0.00214226C76.0003 15.7585 74.6068 31.4848 71.8335 47.0001L0 34.5072C2.03635 23.1136 3.06176 11.5693 3.06176 0Z" stroke="#FFFFFF" stroke-width="1.23786" stroke-linecap="round" stroke-linejoin="round" stroke-miterlimit="10" fill="#56079E" fill-rule="evenodd" transform="matrix(-1 0 0 1 2003.5 1238.5)"/><path d="M81.0005 12.4805C78.2245 27.9806 74.0771 43.2097 68.6094 57.9997L0 33.4199C4.01368 22.562 7.05964 11.3803 9.09583 0Z" stroke="#FFFFFF" stroke-width="1.23786" stroke-linecap="round" stroke-linejoin="round" stroke-miterlimit="10" fill="#430C9D" fill-rule="evenodd" transform="matrix(-1 0 0 1 2012.5 1273.5)"/><path d="M82.9998 24.8393C77.5608 39.7853 70.8297 54.2268 62.8801 68.0001L0 31.686C5.83645 21.5757 10.7804 10.9724 14.7718 0Z" stroke="#FFFFFF" stroke-width="1.23786" stroke-linecap="round" stroke-linejoin="round" stroke-miterlimit="10" fill="#371698" fill-rule="evenodd" transform="matrix(-1 0 0 1 2026.5 1307.5)"/><path d="M83.9999 36.6414C75.9471 50.5389 66.6903 63.708 56.3383 76.0003L0 28.8982C7.60095 19.8727 14.395 10.204 20.3069 0Z" stroke="#FFFFFF" stroke-width="1.23786" stroke-linecap="round" stroke-linejoin="round" stroke-miterlimit="10" fill="#11079C" fill-rule="evenodd" transform="matrix(-1 0 0 1 2047.5 1338.5)"/><path d="M80.0005 46.4759C69.821 58.6043 58.6043 69.821 46.4759 80.0005L0 24.6127C8.90504 17.1402 17.1402 8.90504 24.6127 0Z" stroke="#FFFFFF" stroke-width="1.23786" stroke-linecap="round" stroke-linejoin="round" stroke-miterlimit="10" fill="#01089E" fill-rule="evenodd" transform="matrix(-1 0 0 1 2071.5 1367.5)"/><path d="M75.0007 55.6676C62.87 65.8989 49.8741 75.0429 36.157 82.9998L0 20.0652C10.0698 14.2236 19.6113 7.51046 28.5181 0Z" stroke="#FFFFFF" stroke-width="1.23786" stroke-linecap="round" stroke-linejoin="round" stroke-miterlimit="10" fill="#001D9D" fill-rule="evenodd" transform="matrix(-1 0 0 1 2100.5 1392.5)"/><path d="M68.0004 62.8804C54.2271 70.83 39.7855 77.5611 24.8395 83.0002L0 14.7719C10.9724 10.7805 21.5758 5.83648 31.6887 0Z" stroke="#FFFFFF" stroke-width="1.23786" stroke-linecap="round" stroke-linejoin="round" stroke-miterlimit="10" fill="#00339C" fill-rule="evenodd" transform="matrix(-1 0 0 1 2132.5 1412.5)"/><path d="M59.0005 67.7621C43.9547 73.1622 28.4619 77.2584 12.6942 80.0001L0 8.98563C11.5749 6.97245 22.9496 3.96626 33.9953 0Z" stroke="#FFFFFF" stroke-width="1.23786" stroke-linecap="round" stroke-linejoin="round" stroke-miterlimit="10" fill="#004D9D" fill-rule="evenodd" transform="matrix(-1 0 0 1 2166.5 1427.5)"/><path d="M47.0001 70.8878C31.4816 73.6247 15.757 75.0024 0 74.9999L0 3.01941C11.5677 3.01941 23.1146 2.00997 34.5066 0Z" stroke="#FFFFFF" stroke-width="1.23786" stroke-linecap="round" stroke-linejoin="round" stroke-miterlimit="10" fill="#00629D" fill-rule="evenodd" transform="matrix(-1 0 0 1 2200.5 1436.5)"/><path d="M48.0001 75.0003C31.9089 75.0003 15.848 73.6226 0 70.8858L12.7609 0C24.3948 2.00991 36.1869 3.01933 48.0001 3.01933Z" stroke="#FFFFFF" stroke-width="1.23786" stroke-linecap="round" stroke-linejoin="round" stroke-miterlimit="10" fill="#01729E" fill-rule="evenodd" transform="matrix(-1 0 0 1 2248.5 1436.5)"/><path d="M46.3038 80.0001C30.5386 77.2584 15.0436 73.1622 0 67.7621L25.0052 0C36.0509 3.96626 47.4255 6.97245 59.0005 8.98563Z" stroke="#FFFFFF" stroke-width="1.23786" stroke-linecap="round" stroke-linejoin="round" stroke-miterlimit="10" fill="#01839D" fill-rule="evenodd" transform="matrix(-1 0 0 1 2294.5 1427.5)"/><path d="M43.1602 83.0002C28.2136 77.5633 13.7738 70.83 0 62.8804L36.3129 0C46.4261 5.83864 57.0273 10.7805 68.0001 14.7719Z" stroke="#FFFFFF" stroke-width="1.23786" stroke-linecap="round" stroke-linejoin="round" stroke-miterlimit="10" fill="#019D9A" fill-rule="evenodd" transform="matrix(-1 0 0 1 2337.5 1412.5)"/><path d="M38.8435 82.9998C25.1289 75.0429 12.1328 65.8989 0 55.6676L46.4845 0C55.3912 7.51046 64.9306 14.2236 75.0003 20.0652Z" stroke="#FFFFFF" stroke-width="1.23786" stroke-linecap="round" stroke-linejoin="round" stroke-miterlimit="10" fill="#009D7C" fill-rule="evenodd" transform="matrix(-1 0 0 1 2376.5 1392.5)"/><path d="M33.9443 80.0001C21.6616 69.8229 10.3044 58.6059 0 46.475L56.0793 0C63.6452 8.90528 71.9836 17.1407 80.9998 24.6133Z" stroke="#FFFFFF" stroke-width="1.23786" stroke-linecap="round" stroke-linejoin="round" stroke-miterlimit="10" fill="#019D60" fill-rule="evenodd" transform="matrix(-1 0 0 1 2410.5 1367.5)"/><path d="M27.3302 76C17.101 63.7073 7.95693 50.5378 0 36.6399L62.9328 0C68.7744 10.2017 75.4875 19.8711 83.0002 28.8965Z" stroke="#FFFFFF" stroke-width="1.23786" stroke-linecap="round" stroke-linejoin="round" stroke-miterlimit="10" fill="#099C4E" fill-rule="evenodd" transform="matrix(-1 0 0 1 2437.5 1338.5)"/><path d="M20.1207 67.9997C12.1683 54.226 5.43705 39.7841 0 24.8376L68.2279 0C72.2216 10.9727 77.1636 21.5742 83.0002 31.6874Z" stroke="#FFFFFF" stroke-width="1.23786" stroke-linecap="round" stroke-linejoin="round" stroke-miterlimit="10" fill="#199D37" fill-rule="evenodd" transform="matrix(-1 0 0 1 2457.5 1307.5)"/><path d="M12.391 58.0001C6.92142 43.2094 2.7761 27.9793 0 12.4789L71.9041 0C73.9428 11.3787 76.9867 22.5605 81.0001 33.4188Z" stroke="#FFFFFF" stroke-width="1.23786" stroke-linecap="round" stroke-linejoin="round" stroke-miterlimit="10" fill="#199D0C" fill-rule="evenodd" transform="matrix(-1 0 0 1 2470.5 1273.5)"/><path d="M4.16899 47.0001C1.39353 31.4823 0 15.7563 0 0L72.9389 0C72.9389 11.5671 73.964 23.1136 76.0007 34.505Z" stroke="#FFFFFF" stroke-width="1.23786" stroke-linecap="round" stroke-linejoin="round" stroke-miterlimit="10" fill="#409D07" fill-rule="evenodd" transform="matrix(-1 0 0 1 2474.5 1238.5)"/><path d="M0 48.0001C-0.00253368 31.9089 1.39353 15.848 4.16899 0L76.0007 12.7609C73.964 24.3948 72.9389 36.1869 72.9411 48.0001Z" stroke="#FFFFFF" stroke-width="1.23786" stroke-linecap="round" stroke-linejoin="round" stroke-miterlimit="10" fill="#5D9C03" fill-rule="evenodd" transform="matrix(-1 0 0 1 2474.5 1190.5)"/><path d="M0 46.3063C2.77603 30.5386 6.92341 15.0436 12.3932 0L81.0005 25.0052C76.9868 36.0509 73.943 47.4255 71.9047 59.0005Z" stroke="#FFFFFF" stroke-width="1.23786" stroke-linecap="round" stroke-linejoin="round" stroke-miterlimit="10" fill="#739A01" fill-rule="evenodd" transform="matrix(-1 0 0 1 2470.5 1144.5)"/><path d="M0 43.1602C5.4394 28.2136 12.1701 13.7738 20.1222 0L82.9998 36.3129C77.1637 46.4261 72.2219 57.0273 68.228 68.0001Z" stroke="#FFFFFF" stroke-width="1.23786" stroke-linecap="round" stroke-linejoin="round" stroke-miterlimit="10" fill="#7B9D00" fill-rule="evenodd" transform="matrix(-1 0 0 1 2457.5 1101.5)"/><path d="M0 38.8422C7.95693 25.1281 17.1014 12.1324 27.3323 0L83.0002 46.483C75.4901 55.3894 68.7765 64.9305 62.9353 74.9999Z" stroke="#FFFFFF" stroke-width="1.23786" stroke-linecap="round" stroke-linejoin="round" stroke-miterlimit="10" fill="#839C00" fill-rule="evenodd" transform="matrix(-1 0 0 1 2437.5 1062.5)"/><path d="M0 33.9445C10.3044 21.6616 21.6616 10.3044 33.9443 0L80.9998 56.0795C71.9836 63.6455 63.6452 71.9839 56.0793 81.0001Z" stroke="#FFFFFF" stroke-width="1.23786" stroke-linecap="round" stroke-linejoin="round" stroke-miterlimit="10" fill="#8D9D00" fill-rule="evenodd" transform="matrix(-1 0 0 1 2410.5 1028.5)"/><path d="M0 27.3323C12.1306 17.101 25.1264 7.95693 38.8435 0L75.0003 62.9328C64.9306 68.7744 55.3887 75.4897 46.4824 83.0002Z" stroke="#FFFFFF" stroke-width="1.23786" stroke-linecap="round" stroke-linejoin="round" stroke-miterlimit="10" fill="#9C9D01" fill-rule="evenodd" transform="matrix(-1 0 0 1 2376.5 1001.5)"/><path d="M0 20.1202C13.7734 12.168 28.2149 5.43691 43.1609 0L68.0004 68.2262C57.028 72.2197 46.4246 77.1616 36.3139 83.0002Z" stroke="#FFFFFF" stroke-width="1.23786" stroke-linecap="round" stroke-linejoin="round" stroke-miterlimit="10" fill="#9E8300" fill-rule="evenodd" transform="matrix(-1 0 0 1 2337.5 981.5)"/><path d="M0 12.3907C15.0452 6.92123 30.5373 2.77603 46.3065 0L59.0001 71.9021C47.4235 73.9409 36.0493 76.9846 25.0042 81.0005Z" stroke="#FFFFFF" stroke-width="1.23786" stroke-linecap="round" stroke-linejoin="round" stroke-miterlimit="10" fill="#9C5900" fill-rule="evenodd" transform="matrix(-1 0 0 1 2294.5 968.5)"/><path d="M0 4.16897C15.848 1.39352 31.9064 0 48.0001 0L48.0001 72.9386C36.1847 72.9407 24.3948 73.9636 12.7588 76.0003Z" stroke="#FFFFFF" stroke-width="1.23786" stroke-linecap="round" stroke-linejoin="round" stroke-miterlimit="10" fill="#9D3100" fill-rule="evenodd" transform="matrix(-1 0 0 1 2248.5 964.5)"/><path d="M0 0C15.7583-0.00253367 31.482 1.39352 46.9997 4.16897L34.5069 76.0003C23.1134 73.9636 11.5692 72.9407 0 72.9407Z" stroke="#FFFFFF" stroke-width="1.23786" stroke-linecap="round" stroke-linejoin="round" stroke-miterlimit="10" fill="#971A06" fill-rule="evenodd" transform="matrix(-1 0 0 1 2200.5 964.5)"/><path d="M12.6936 0C28.4632 2.77357 43.955 6.92142 59.0001 12.391L33.9963 81.0001C22.9512 76.9867 11.5766 73.9428 0 71.9041Z" stroke="#FFFFFF" stroke-width="1.23786" stroke-linecap="round" stroke-linejoin="round" stroke-miterlimit="10" fill="#9D000D" fill-rule="evenodd" transform="matrix(-1 0 0 1 2166.5 968.5)"/><path d="M24.8395 0C39.7855 5.43707 54.2271 12.1684 68.0004 20.1208L31.6862 83.0006C21.5736 77.1639 10.9724 72.2219 0 68.2304Z" stroke="#FFFFFF" stroke-width="1.23786" stroke-linecap="round" stroke-linejoin="round" stroke-miterlimit="10" fill="#9D0039" fill-rule="evenodd" transform="matrix(-1 0 0 1 2132.5 981.5)"/><path d="M36.157 0C49.8741 7.95465 62.87 17.0994 75.0007 27.3332L28.5181 83.0006C19.6113 75.492 10.0698 68.7765 0 62.9347Z" stroke="#FFFFFF" stroke-width="1.23786" stroke-linecap="round" stroke-linejoin="round" stroke-miterlimit="10" fill="#980053" fill-rule="evenodd" transform="matrix(-1 0 0 1 2100.5 1001.5)"/><path d="M46.4747 0C58.6059 10.3044 69.8229 21.6616 80.0001 33.9445L24.6133 81.0001C17.1407 71.9839 8.90528 63.6455 0 56.0817Z" stroke="#FFFFFF" stroke-width="1.23786" stroke-linecap="round" stroke-linejoin="round" stroke-miterlimit="10" fill="#8A0062" fill-rule="evenodd" transform="matrix(-1 0 0 1 2071.5 1028.5)"/><path d="M56.3392 0C66.6934 12.1306 75.9473 25.1264 83.9999 38.8435L20.3085 75.0003C14.3971 64.9306 7.60327 55.3912 0 46.4845Z" stroke="#FFFFFF" stroke-width="1.23786" stroke-linecap="round" stroke-linejoin="round" stroke-miterlimit="10" fill="#8F0082" fill-rule="evenodd" transform="matrix(-1 0 0 1 2047.5 1062.5)"/><path d="M62.8776 0C70.8297 13.7738 77.563 28.2136 82.9998 43.1602L14.7718 68.0001C10.7783 57.0273 5.83645 46.4261 0 36.3129Z" stroke="#FFFFFF" stroke-width="1.23786" stroke-linecap="round" stroke-linejoin="round" stroke-miterlimit="10" fill="#880093" fill-rule="evenodd" transform="matrix(-1 0 0 1 2026.5 1101.5)"/><path d="M68.6077 0C74.0795 15.0452 78.2242 30.5373 81.0001 46.3065L9.10025 59.0001C7.06195 47.426 4.01573 36.0515 0 25.0063Z" stroke="#FFFFFF" stroke-width="1.23786" stroke-linecap="round" stroke-linejoin="round" stroke-miterlimit="10" fill="#77009A" fill-rule="evenodd" transform="matrix(-1 0 0 1 2012.5 1144.5)"/></g></svg>