<svg width="657" height="657" xmlns="http://www.w3.org/2000/svg" xmlns:xlink="http://www.w3.org/1999/xlink" xml:space="preserve" overflow="hidden"><g transform="translate(-1464 -573)"><path d="M1727.5 901.5C1727.5 865.601 1756.6 836.5 1792.5 836.5 1828.4 836.5 1857.5 865.601 1857.5 901.5 1857.5 937.399 1828.4 966.5 1792.5 966.5 1756.6 966.5 1727.5 937.399 1727.5 901.5Z" stroke="#BFBFBF" stroke-width="6.875" stroke-miterlimit="8" fill="none" fill-rule="evenodd"/><path d="M1662.5 901.5C1662.5 829.703 1720.7 771.5 1792.5 771.5 1864.3 771.5 1922.5 829.703 1922.5 901.5 1922.5 973.297 1864.3 1031.5 1792.5 1031.5 1720.7 1031.5 1662.5 973.297 1662.5 901.5Z" stroke="#BFBFBF" stroke-width="6.875" stroke-miterlimit="8" fill="none" fill-rule="evenodd"/><path d="M1597.5 901.5C1597.5 793.804 1684.8 706.5 1792.5 706.5 1900.2 706.5 1987.5 793.804 1987.5 901.5 1987.5 1009.2 1900.2 1096.5 1792.5 1096.5 1684.8 1096.5 1597.5 1009.2 1597.5 901.5Z" stroke="#BFBFBF" stroke-width="6.875" stroke-miterlimit="8" fill="none" fill-rule="evenodd"/><path d="M1532.5 901.5C1532.5 757.906 1648.91 641.5 1792.5 641.5 1936.09 641.5 2052.5 757.906 2052.5 901.5 2052.5 1045.09 1936.09 1161.5 1792.5 1161.5 1648.91 1161.5 1532.5 1045.09 1532.5 901.5Z" stroke="#BFBFBF" stroke-width="6.875" stroke-miterlimit="8" fill="none" fill-rule="evenodd"/><path d="M1467.5 901.5C1467.5 722.007 1613.01 576.5 1792.5 576.5 1971.99 576.5 2117.5 722.007 2117.5 901.5 2117.5 1080.99 1971.99 1226.5 1792.5 1226.5 1613.01 1226.5 1467.5 1080.99 1467.5 901.5Z" stroke="#BFBFBF" stroke-width="6.875" stroke-miterlimit="8" fill="none" fill-rule="evenodd"/></g></svg>