<svg width="2481" height="2570" xmlns="http://www.w3.org/2000/svg" xmlns:xlink="http://www.w3.org/1999/xlink" xml:space="preserve" overflow="hidden"><g transform="translate(-966 24)"><path d="M2200.21 1055.06 2291.97 1078.94M2291.97 1078.94 2358.59 1146.82M2358.59 1146.82 2383.73 1237.33M2383.73 1237.33 2358.59 1329.09M2358.59 1329.09 2291.97 1396.98M2291.97 1396.98 2200.21 1420.86M2200.21 1420.86 2108.43 1396.98M2108.43 1396.98 2041.81 1329.09M2041.81 1329.09 2017.93 1237.33M2017.93 1237.33 2041.81 1146.82M2041.81 1146.82 2108.43 1078.94M2108.43 1078.94 2200.21 1055.06M2200.21 871.526 2383.73 920.553M2383.73 920.553 2516.97 1055.06M2516.97 1055.06 2567.26 1237.33M2567.26 1237.33 2516.97 1420.86M2516.97 1420.86 2383.73 1555.37M2383.73 1555.37 2200.21 1604.39M2200.21 1604.39 2017.93 1555.37M2017.93 1555.37 1883.43 1420.86M1883.43 1420.86 1834.4 1237.33M1834.4 1237.33 1883.43 1055.06M1883.43 1055.06 2017.93 920.553M2017.93 920.553 2200.21 871.526M2200.21 689.255 2475.49 762.164M2475.49 762.164 2676.63 963.287M2676.63 963.287 2749.53 1237.33M2749.53 1237.33 2676.63 1512.63M2676.63 1512.63 2475.49 1713.75M2475.49 1713.75 2200.21 1786.67M2200.21 1786.67 1926.17 1713.75M1926.17 1713.75 1725.03 1512.63M1725.03 1512.63 1650.87 1237.33M1650.87 1237.33 1725.03 963.287M1725.03 963.287 1926.17 762.164M1926.17 762.164 2200.21 689.255M2200.21 505.725 2567.26 603.774M2567.26 603.774 2835.01 871.526M2835.01 871.526 2933.06 1237.33M2933.06 1237.33 2835.01 1604.39M2835.01 1604.39 2567.26 1872.14M2567.26 1872.14 2200.21 1970.19M2200.21 1970.19 1834.4 1872.14M1834.4 1872.14 1566.65 1604.39M1566.65 1604.39 1468.6 1237.33M1468.6 1237.33 1566.65 871.526M1566.65 871.526 1834.4 603.774M1834.4 603.774 2200.21 505.725M2200.21 322.194 2657.77 445.385M2657.77 445.385 2993.41 779.762M2993.41 779.762 3115.34 1237.33M3115.34 1237.33 2993.41 1696.15M2993.41 1696.15 2657.77 2030.53M2657.77 2030.53 2200.21 2153.72M2200.21 2153.72 1742.63 2030.53M1742.63 2030.53 1408.25 1696.15M1408.25 1696.15 1285.07 1237.33M1285.07 1237.33 1408.25 779.762M1408.25 779.762 1742.63 445.385M1742.63 445.385 2200.21 322.194M2200.21 139.906 2749.53 286.997M2749.53 286.997 3151.79 689.255M3151.79 689.255 3298.74 1237.33M3298.74 1237.33 3151.79 1786.67M3151.79 1786.67 2749.53 2188.92M2749.53 2188.92 2200.21 2335.91M2200.21 2335.91 1650.87 2188.92M1650.87 2188.92 1249.87 1786.67M1249.87 1786.67 1102.74 1237.33M1102.74 1237.33 1249.87 689.255M1249.87 689.255 1650.87 286.997M1650.87 286.997 2200.21 139.906" stroke="#D9D9D9" stroke-width="4.3188" stroke-linejoin="round" stroke-miterlimit="10" fill="none" fill-rule="evenodd"/><text fill="#595959" font-family="Aptos,Aptos_MSFontService,sans-serif" font-weight="400" font-size="92" transform="matrix(1 0 0 1 2163.57 89)">12</text><text fill="#595959" font-family="Aptos,Aptos_MSFontService,sans-serif" font-weight="400" font-size="92" transform="matrix(1 0 0 1 2771.58 289)">1</text><text fill="#595959" font-family="Aptos,Aptos_MSFontService,sans-serif" font-weight="400" font-size="92" transform="matrix(1 0 0 1 3189.7 706)">2</text><text fill="#595959" font-family="Aptos,Aptos_MSFontService,sans-serif" font-weight="400" font-size="92" transform="matrix(1 0 0 1 3342.74 1278)">3</text><text fill="#595959" font-family="Aptos,Aptos_MSFontService,sans-serif" font-weight="400" font-size="92" transform="matrix(1 0 0 1 3189.7 1849)">4</text><text fill="#595959" font-family="Aptos,Aptos_MSFontService,sans-serif" font-weight="400" font-size="92" transform="matrix(1 0 0 1 2771.58 2267)">5</text><text fill="#595959" font-family="Aptos,Aptos_MSFontService,sans-serif" font-weight="400" font-size="92" transform="matrix(1 0 0 1 2182 2466)">6</text><text fill="#595959" font-family="Aptos,Aptos_MSFontService,sans-serif" font-weight="400" font-size="92" transform="matrix(1 0 0 1 1592.41 2267)">7</text><text fill="#595959" font-family="Aptos,Aptos_MSFontService,sans-serif" font-weight="400" font-size="92" transform="matrix(1 0 0 1 1174.3 1849)">8</text><text fill="#595959" font-family="Aptos,Aptos_MSFontService,sans-serif" font-weight="400" font-size="92" transform="matrix(1 0 0 1 1021.25 1278)">9</text><text fill="#595959" font-family="Aptos,Aptos_MSFontService,sans-serif" font-weight="400" font-size="92" transform="matrix(1 0 0 1 1137.46 706)">10</text><text fill="#595959" font-family="Aptos,Aptos_MSFontService,sans-serif" font-weight="400" font-size="92" transform="matrix(1 0 0 1 1555.57 289)">11</text></g></svg>